<svg width="70" height="17" viewBox="0 0 70 17" fill="none" xmlns="http://www.w3.org/2000/svg"><path d="M11.259 7.015c0 1.236-.197 2.302-.59 3.199-.392.89-.942 1.588-1.651 2.092l2.285 1.793-1.152 1.063-2.698-2.144a5.494 5.494 0 01-1.336.158c-1.008 0-1.901-.246-2.68-.739-.78-.497-1.386-1.204-1.82-2.118C1.19 9.4.97 8.336.958 7.13v-.923c0-1.23.214-2.317.642-3.26.427-.944 1.03-1.665 1.81-2.163C4.195.28 5.092.027 6.1.027c1.03 0 1.936.25 2.715.747.786.498 1.39 1.216 1.811 2.154.422.931.633 2.021.633 3.27v.817zM9.57 6.188c0-1.505-.301-2.666-.905-3.48-.598-.82-1.453-1.23-2.566-1.23-1.06 0-1.899.407-2.514 1.221-.61.809-.923 1.934-.94 3.375v.94c0 1.465.304 2.62.914 3.463.615.844 1.467 1.266 2.557 1.266 1.09 0 1.934-.395 2.531-1.186.598-.797.906-1.937.923-3.42v-.949zm9.906 5.872c-.633.744-1.562 1.116-2.787 1.116-1.013 0-1.787-.293-2.32-.88-.527-.59-.794-1.464-.8-2.618V3.49h1.626v6.144c0 1.441.586 2.162 1.758 2.162 1.242 0 2.069-.463 2.479-1.389V3.49h1.626V13h-1.547l-.035-.94zm9.931.94c-.094-.188-.17-.521-.228-1.002-.756.785-1.659 1.178-2.707 1.178-.938 0-1.708-.264-2.312-.791-.598-.533-.896-1.207-.896-2.022 0-.99.375-1.758 1.125-2.302.755-.551 1.816-.827 3.181-.827h1.582v-.747c0-.568-.17-1.02-.51-1.353-.34-.34-.84-.51-1.502-.51-.58 0-1.067.147-1.46.44-.392.292-.588.647-.588 1.063h-1.635c0-.475.167-.932.501-1.371.34-.445.797-.797 1.371-1.055a4.643 4.643 0 011.907-.387c1.096 0 1.954.276 2.576.827.62.545.943 1.297.966 2.258v4.377c0 .873.112 1.568.334 2.083V13h-1.705zm-2.698-1.24c.51 0 .993-.131 1.45-.395.457-.263.788-.606.993-1.028V8.386H27.88c-1.992 0-2.988.583-2.988 1.749 0 .51.17.908.51 1.195.34.287.776.43 1.309.43zm8.156-8.27l.053 1.196c.727-.915 1.676-1.372 2.848-1.372 2.01 0 3.023 1.134 3.04 3.402V13h-1.625V6.707c-.006-.686-.164-1.192-.475-1.52-.305-.329-.782-.493-1.433-.493-.527 0-.99.141-1.388.422-.399.281-.71.65-.932 1.108V13h-1.626V3.49h1.538zm10.6-2.303V3.49h1.775v1.257h-1.775v5.898c0 .38.079.668.237.86.158.188.428.282.809.282.187 0 .445-.035.773-.105V13a4.714 4.714 0 01-1.248.176c-.727 0-1.274-.22-1.643-.66-.37-.439-.554-1.063-.554-1.871V4.747h-1.732V3.49h1.732V1.187h1.626zM50.915 13h-1.626V3.49h1.626V13zM49.157.968c0-.264.08-.487.238-.668.164-.182.404-.273.72-.273.317 0 .557.091.72.273a.96.96 0 01.247.668.929.929 0 01-.246.659c-.164.176-.404.264-.72.264-.317 0-.557-.088-.721-.264a.949.949 0 01-.238-.66zm6.574.22V3.49h1.776v1.257H55.73v5.898c0 .38.08.668.238.86.158.188.428.282.808.282.188 0 .446-.035.774-.105V13a4.714 4.714 0 01-1.248.176c-.727 0-1.275-.22-1.644-.66-.369-.439-.553-1.063-.553-1.871V4.747h-1.732V3.49h1.731V1.187h1.626zm6.794 9.43L64.74 3.49h1.74l-3.823 10.978c-.592 1.582-1.532 2.373-2.821 2.373l-.308-.027-.606-.114v-1.318l.44.035c.55 0 .978-.111 1.282-.334.311-.223.566-.63.765-1.222l.36-.966-3.392-9.405h1.775l2.373 7.128zm5.362 1.53c0-.282.082-.516.246-.704.17-.187.422-.28.756-.28s.586.093.755.28a.988.988 0 01.264.704c0 .269-.088.495-.264.676-.17.182-.421.273-.755.273s-.586-.091-.756-.273a.972.972 0 01-.246-.676zm.008-7.761c0-.282.083-.516.247-.703.17-.188.422-.282.755-.282.334 0 .586.094.756.282a.988.988 0 01.264.703c0 .27-.088.495-.264.676-.17.182-.422.273-.756.273s-.586-.09-.755-.273a.972.972 0 01-.246-.676z" fill="#000"/></svg>