<svg width="37" height="14" viewBox="0 0 37 14" fill="none" xmlns="http://www.w3.org/2000/svg"><path d="M5.256 7.296c-1.447-.416-2.502-.926-3.164-1.53-.656-.609-.985-1.359-.985-2.25 0-1.007.402-1.84 1.205-2.495C3.12.358 4.169.027 5.458.027c.879 0 1.661.17 2.347.51.691.34 1.224.809 1.6 1.406.38.598.57 1.251.57 1.96H8.28c0-.773-.246-1.38-.738-1.819-.492-.445-1.187-.668-2.083-.668-.832 0-1.482.185-1.951.554-.463.363-.695.87-.695 1.52 0 .522.22.964.66 1.327.445.358 1.198.686 2.258.985 1.067.299 1.899.63 2.497.993.603.357 1.048.776 1.335 1.257.293.48.44 1.046.44 1.696 0 1.037-.404 1.87-1.213 2.496-.809.621-1.89.932-3.243.932a6.06 6.06 0 01-2.461-.501c-.762-.34-1.35-.803-1.767-1.389a3.395 3.395 0 01-.615-1.995H2.4c0 .774.285 1.386.853 1.837.574.445 1.339.668 2.294.668.89 0 1.573-.182 2.048-.545.474-.363.712-.858.712-1.485 0-.627-.22-1.11-.66-1.45-.439-.346-1.236-.686-2.39-1.02zM13.685 13h-1.626V3.49h1.626V13zM11.927.968c0-.264.079-.487.237-.668.164-.182.404-.273.72-.273.317 0 .557.091.721.273a.96.96 0 01.247.668.929.929 0 01-.247.659c-.164.176-.404.264-.72.264-.317 0-.557-.088-.72-.264a.949.949 0 01-.238-.66zm5.897 10.705h5.564V13h-7.55v-1.195l5.247-6.97h-5.168V3.49h7.207v1.152l-5.3 7.03zm11.206 1.503c-1.289 0-2.338-.422-3.146-1.266-.809-.85-1.213-1.983-1.213-3.401V8.21c0-.943.179-1.784.536-2.523.363-.744.867-1.324 1.512-1.74a3.803 3.803 0 012.11-.633c1.235 0 2.196.408 2.882 1.222.686.815 1.028 1.98 1.028 3.498v.677h-6.442c.023.937.296 1.696.817 2.276.528.575 1.196.862 2.004.862.574 0 1.06-.118 1.46-.352a3.666 3.666 0 001.045-.932l.993.774c-.797 1.224-1.992 1.837-3.586 1.837zm-.202-8.526c-.656 0-1.207.24-1.652.721-.445.475-.72 1.143-.826 2.004h4.763v-.123c-.047-.826-.27-1.465-.668-1.916-.398-.457-.937-.686-1.617-.686zm5.748 7.498c0-.282.082-.516.246-.704.17-.187.422-.28.756-.28s.586.093.756.28a.988.988 0 01.264.704c0 .269-.088.495-.264.676-.17.182-.422.273-.756.273s-.586-.091-.756-.273a.972.972 0 01-.246-.676zm.009-7.761c0-.282.082-.516.246-.703.17-.188.422-.282.756-.282s.586.094.756.282a.988.988 0 01.263.703c0 .27-.087.495-.263.676-.17.182-.422.273-.756.273s-.586-.09-.756-.273a.972.972 0 01-.246-.676z" fill="#000"/></svg>