<svg width="83" height="13" viewBox="0 0 83 13" fill="none" xmlns="http://www.w3.org/2000/svg"><path d="M7.126 9.217H2.66L1.655 12H.205L4.277 1.336h1.23L9.588 12H8.145L7.126 9.217zM3.083 8.06H6.71L4.893 3.072 3.083 8.06zm7.398-.088c0-1.216.288-2.193.864-2.93.576-.742 1.33-1.113 2.263-1.113.928 0 1.663.317 2.205.952V.75h1.355V12h-1.245l-.066-.85c-.542.665-1.296.996-2.263.996-.918 0-1.668-.376-2.249-1.127-.576-.752-.864-1.734-.864-2.945v-.102zm1.355.153c0 .899.185 1.602.557 2.11.37.508.883.762 1.538.762.859 0 1.487-.386 1.882-1.158V6.2c-.405-.747-1.028-1.12-1.868-1.12-.664 0-1.181.256-1.552.769-.372.512-.557 1.272-.557 2.277zm7.112-.153c0-1.216.288-2.193.864-2.93.576-.742 1.33-1.113 2.263-1.113.928 0 1.663.317 2.205.952V.75h1.355V12H24.39l-.066-.85c-.542.665-1.297.996-2.264.996-.917 0-1.667-.376-2.248-1.127-.576-.752-.864-1.734-.864-2.945v-.102zm1.355.153c0 .899.185 1.602.556 2.11.371.508.884.762 1.538.762.86 0 1.487-.386 1.883-1.158V6.2c-.405-.747-1.028-1.12-1.868-1.12-.664 0-1.181.256-1.553.769-.37.512-.556 1.272-.556 2.277zm12.78-.3V12h-1.406V1.336h3.933c1.167 0 2.08.298 2.74.893.664.596.996 1.385.996 2.366 0 1.035-.325 1.834-.974 2.395-.645.557-1.57.835-2.776.835h-2.512zm0-1.15h2.527c.752 0 1.328-.175 1.729-.527.4-.356.6-.87.6-1.538 0-.635-.2-1.143-.6-1.524-.4-.38-.95-.578-1.648-.593h-2.608v4.182zm11.675-1.384a4.06 4.06 0 00-.666-.051c-.889 0-1.492.378-1.81 1.135V12h-1.354V4.075h1.318l.022.916c.444-.708 1.074-1.062 1.89-1.062.263 0 .464.034.6.102v1.26zm.747 2.673c0-.776.152-1.474.454-2.094.308-.62.733-1.099 1.275-1.436.547-.337 1.17-.505 1.868-.505 1.079 0 1.95.373 2.614 1.12.67.747 1.004 1.741 1.004 2.981v.095c0 .772-.15 1.465-.447 2.08a3.337 3.337 0 01-1.267 1.429c-.547.342-1.177.512-1.89.512-1.074 0-1.946-.373-2.614-1.12-.665-.747-.997-1.736-.997-2.966v-.096zm1.363.161c0 .88.202 1.585.608 2.117.41.532.957.798 1.64.798.689 0 1.236-.268 1.64-.805.406-.542.609-1.299.609-2.27 0-.87-.208-1.573-.623-2.11-.41-.542-.957-.813-1.64-.813-.67 0-1.209.266-1.62.798-.41.533-.614 1.294-.614 2.285zm7.221-.153c0-1.216.288-2.193.865-2.93.576-.742 1.33-1.113 2.263-1.113.928 0 1.662.317 2.204.952V.75h1.355V12h-1.245l-.066-.85c-.542.665-1.296.996-2.263.996-.918 0-1.667-.376-2.248-1.127-.577-.752-.865-1.734-.865-2.945v-.102zm1.355.153c0 .899.186 1.602.557 2.11.371.508.884.762 1.538.762.86 0 1.487-.386 1.882-1.158V6.2c-.405-.747-1.027-1.12-1.867-1.12-.664 0-1.182.256-1.553.769-.371.512-.557 1.272-.557 2.277zm12.334 3.091c-.527.62-1.3.93-2.322.93-.844 0-1.489-.244-1.933-.732-.44-.493-.662-1.22-.667-2.183V4.075h1.355v5.12c0 1.201.489 1.802 1.465 1.802 1.035 0 1.724-.386 2.066-1.158V4.075h1.355V12h-1.29l-.029-.784zm6.563-.175c.483 0 .906-.147 1.267-.44.361-.293.561-.66.6-1.099h1.282c-.024.455-.18.887-.468 1.297a3.08 3.08 0 01-1.158.981 3.307 3.307 0 01-1.523.367c-1.08 0-1.939-.36-2.578-1.077-.635-.723-.953-1.71-.953-2.96v-.226c0-.772.142-1.458.425-2.058.284-.6.689-1.067 1.216-1.4.532-.331 1.16-.497 1.883-.497.888 0 1.626.266 2.211.798.591.532.906 1.223.945 2.073H76.21c-.04-.513-.235-.933-.586-1.26-.347-.332-.777-.498-1.29-.498-.688 0-1.223.249-1.603.747-.377.493-.565 1.209-.565 2.146v.256c0 .913.188 1.617.564 2.11.377.493.914.74 1.612.74zm6.511-8.885v1.92h1.48v1.047h-1.48v4.914c0 .317.066.557.198.718.132.156.356.234.674.234.156 0 .37-.029.644-.088V12a3.927 3.927 0 01-1.04.146c-.605 0-1.062-.183-1.37-.549-.307-.366-.46-.886-.46-1.56V5.123h-1.444V4.075h1.443V2.156h1.355z" fill="#fff"/></svg>