<svg width="930" height="42" viewBox="0 0 930 42" fill="none" xmlns="http://www.w3.org/2000/svg"><path fill="#5ECCEF" d="M0 0h930v42H0z"/><path d="M24.296 27h-1.688V14.203h1.688V27zm4.377-9.51l.053 1.196c.726-.915 1.675-1.372 2.847-1.372 2.01 0 3.024 1.134 3.041 3.402V27h-1.626v-6.293c-.006-.686-.164-1.192-.474-1.52-.305-.329-.783-.493-1.433-.493-.527 0-.99.141-1.389.422-.398.282-.709.65-.931 1.108V27h-1.626v-9.51h1.538zM45.1 22.35c0 1.448-.331 2.614-.994 3.499-.662.884-1.558 1.327-2.689 1.327-1.154 0-2.063-.366-2.725-1.099v4.58h-1.626V17.49h1.486l.079 1.055c.662-.82 1.582-1.23 2.76-1.23 1.142 0 2.044.43 2.707 1.291.668.862 1.002 2.06 1.002 3.595v.15zm-1.626-.184c0-1.072-.229-1.919-.686-2.54-.457-.621-1.084-.932-1.88-.932-.985 0-1.723.437-2.216 1.31v4.544c.487.867 1.23 1.3 2.233 1.3.78 0 1.397-.307 1.854-.922.463-.621.695-1.541.695-2.76zm9.57 3.894c-.632.744-1.56 1.116-2.785 1.116-1.014 0-1.787-.293-2.32-.88-.528-.59-.794-1.464-.8-2.618V17.49h1.626v6.144c0 1.441.586 2.162 1.758 2.162 1.242 0 2.068-.463 2.478-1.389V17.49h1.626V27H53.08l-.035-.94zm6.268-10.872v2.302h1.775v1.257H59.31v5.898c0 .38.08.668.238.86.158.188.428.282.808.282.188 0 .446-.035.774-.105V27a4.714 4.714 0 01-1.248.176c-.727 0-1.275-.22-1.644-.66-.369-.439-.553-1.063-.553-1.871v-5.898h-1.732V17.49h1.731v-2.302h1.627zm16.18 7.163c0 1.447-.33 2.613-.993 3.498-.662.884-1.559 1.327-2.69 1.327-1.154 0-2.062-.366-2.724-1.099v4.58h-1.626V17.49h1.485l.08 1.055c.662-.82 1.582-1.23 2.76-1.23 1.142 0 2.044.43 2.706 1.291.668.862 1.002 2.06 1.002 3.595v.15zm-1.626-.185c0-1.072-.228-1.919-.685-2.54-.457-.621-1.084-.932-1.881-.932-.985 0-1.723.437-2.215 1.31v4.544c.486.867 1.23 1.3 2.232 1.3.78 0 1.398-.307 1.855-.922.463-.621.694-1.541.694-2.76zm8.297-3.217a4.874 4.874 0 00-.8-.061c-1.066 0-1.79.454-2.17 1.362V27h-1.627v-9.51h1.582l.027 1.099c.533-.85 1.289-1.274 2.267-1.274.317 0 .557.04.721.122v1.512zm.897 3.208c0-.931.181-1.77.544-2.513.37-.745.88-1.319 1.53-1.723.656-.404 1.403-.607 2.241-.607 1.295 0 2.34.449 3.138 1.345.802.897 1.204 2.089 1.204 3.577v.115c0 .925-.179 1.757-.536 2.496a4.005 4.005 0 01-1.52 1.713c-.657.41-1.413.616-2.268.616-1.29 0-2.335-.448-3.138-1.345-.797-.896-1.195-2.083-1.195-3.56v-.114zm1.634.194c0 1.054.243 1.901.73 2.54.492.638 1.148.958 1.969.958.826 0 1.482-.323 1.968-.967.487-.65.73-1.559.73-2.725 0-1.043-.25-1.887-.747-2.531-.492-.65-1.149-.976-1.969-.976-.803 0-1.45.32-1.942.958-.493.64-.739 1.553-.739 2.743zm8.666-.185c0-1.459.346-2.63 1.037-3.516.692-.89 1.597-1.335 2.716-1.335 1.114 0 1.995.38 2.646 1.142V13.5h1.626V27h-1.494l-.08-1.02c-.65.797-1.555 1.196-2.715 1.196-1.102 0-2.001-.451-2.699-1.354-.69-.902-1.037-2.08-1.037-3.533v-.123zm1.626.185c0 1.078.223 1.922.668 2.53.446.61 1.06.915 1.846.915 1.031 0 1.784-.463 2.259-1.389V20.04c-.487-.896-1.234-1.345-2.241-1.345-.797 0-1.418.308-1.864.923-.445.615-.668 1.527-.668 2.734zm14.801 3.709c-.633.744-1.561 1.116-2.786 1.116-1.014 0-1.787-.293-2.32-.88-.528-.59-.794-1.464-.8-2.618V17.49h1.626v6.144c0 1.441.586 2.162 1.758 2.162 1.242 0 2.068-.463 2.478-1.389V17.49h1.626V27h-1.547l-.035-.94zm7.875-.211c.58 0 1.087-.176 1.521-.528.433-.351.673-.79.72-1.318h1.538c-.029.545-.216 1.063-.562 1.556a3.7 3.7 0 01-1.389 1.177 3.965 3.965 0 01-1.828.44c-1.295 0-2.326-.43-3.094-1.292-.761-.867-1.142-2.051-1.142-3.551v-.272c0-.926.17-1.75.51-2.47.339-.72.826-1.28 1.459-1.679.638-.398 1.391-.598 2.258-.598 1.067 0 1.951.32 2.655.959.709.638 1.087 1.467 1.133 2.487h-1.538c-.047-.616-.281-1.12-.703-1.512-.416-.398-.931-.598-1.547-.598-.826 0-1.467.3-1.924.897-.452.592-.677 1.45-.677 2.575v.308c0 1.095.225 1.94.677 2.53.451.593 1.095.889 1.933.889zm7.814-10.662v2.303h1.775v1.257h-1.775v5.898c0 .38.079.668.237.86.158.188.428.282.808.282.188 0 .446-.035.774-.105V27a4.716 4.716 0 01-1.248.176c-.727 0-1.275-.22-1.644-.66-.369-.439-.553-1.063-.553-1.871v-5.898h-1.732V17.49h1.732v-2.302h1.626zm7.752 6.979c0-1.459.345-2.63 1.037-3.516.691-.89 1.596-1.335 2.715-1.335 1.114 0 1.996.38 2.646 1.142V13.5h1.626V27h-1.494l-.079-1.02c-.651.797-1.556 1.196-2.716 1.196-1.102 0-2.001-.451-2.698-1.354-.692-.902-1.037-2.08-1.037-3.533v-.123zm1.626.185c0 1.078.222 1.922.667 2.53.446.61 1.061.915 1.846.915 1.031 0 1.784-.463 2.259-1.389V20.04c-.486-.896-1.233-1.345-2.241-1.345-.797 0-1.418.308-1.864.923-.445.615-.667 1.527-.667 2.734zm12.875 4.825c-1.289 0-2.337-.422-3.146-1.266-.809-.85-1.213-1.983-1.213-3.401v-.299c0-.943.179-1.784.536-2.523.364-.744.867-1.324 1.512-1.74a3.8 3.8 0 012.109-.633c1.237 0 2.198.408 2.883 1.222.686.815 1.028 1.98 1.028 3.498v.677h-6.442c.024.937.296 1.696.817 2.276.528.575 1.196.862 2.004.862.575 0 1.061-.118 1.459-.352a3.662 3.662 0 001.046-.932l.993.774c-.796 1.225-1.992 1.837-3.586 1.837zm-.202-8.526c-.656 0-1.207.24-1.652.721-.445.475-.721 1.143-.826 2.004h4.763v-.123c-.046-.826-.269-1.465-.667-1.916-.399-.457-.938-.686-1.618-.686zm8.007-3.462v2.302h1.776v1.257h-1.776v5.898c0 .38.079.668.237.86.159.188.428.282.809.282.188 0 .445-.035.774-.105V27a4.718 4.718 0 01-1.249.176c-.726 0-1.274-.22-1.643-.66-.369-.439-.554-1.063-.554-1.871v-5.898h-1.731V17.49h1.731v-2.302h1.626zM165.088 27c-.094-.188-.17-.521-.229-1.002-.755.785-1.658 1.178-2.707 1.178-.937 0-1.708-.264-2.311-.791-.598-.533-.897-1.207-.897-2.022 0-.99.375-1.758 1.125-2.302.756-.551 1.817-.827 3.182-.827h1.582v-.747c0-.568-.17-1.02-.51-1.353-.34-.34-.841-.51-1.503-.51-.58 0-1.066.146-1.459.44-.392.292-.589.647-.589 1.063h-1.634c0-.475.167-.932.501-1.371.34-.445.797-.797 1.371-1.055a4.643 4.643 0 011.907-.387c1.096 0 1.954.276 2.575.827.621.545.944 1.298.967 2.258v4.377c0 .873.111 1.568.334 2.083V27h-1.705zm-2.698-1.24c.509 0 .993-.131 1.45-.395.457-.263.788-.606.993-1.028v-1.951h-1.274c-1.993 0-2.989.583-2.989 1.749 0 .51.17.908.51 1.195.34.287.776.43 1.31.43zm8.384 1.24h-1.626v-9.51h1.626V27zm-1.757-12.032c0-.264.079-.487.237-.668.164-.182.404-.273.721-.273.316 0 .556.091.72.273a.96.96 0 01.246.668.93.93 0 01-.246.659c-.164.176-.404.264-.72.264-.317 0-.557-.088-.721-.264a.95.95 0 01-.237-.66zM175.151 27h-1.626V13.5h1.626V27zm8.842 0h-1.626v-9.51h1.626V27zm-1.758-12.032c0-.264.079-.487.238-.668.164-.182.404-.273.72-.273.317 0 .557.091.721.273a.96.96 0 01.246.668.93.93 0 01-.246.659c-.164.176-.404.264-.721.264-.316 0-.556-.088-.72-.264a.946.946 0 01-.238-.66zm5.907 2.522l.052 1.196c.727-.915 1.676-1.372 2.848-1.372 2.01 0 3.023 1.134 3.041 3.402V27h-1.626v-6.293c-.006-.686-.164-1.192-.475-1.52-.304-.329-.782-.493-1.432-.493-.528 0-.99.141-1.389.422-.398.282-.709.65-.932 1.108V27h-1.625v-9.51h1.538zm9.193 9.51v-8.253h-1.503V17.49h1.503v-.975c0-1.02.272-1.808.817-2.365.545-.556 1.316-.835 2.312-.835.375 0 .747.05 1.116.15l-.088 1.318a4.667 4.667 0 00-.879-.079c-.527 0-.934.155-1.221.466-.288.305-.431.744-.431 1.318v1.002h2.03v1.257h-2.03V27h-1.626zm5.027-4.843c0-.931.182-1.77.545-2.513.369-.745.879-1.319 1.53-1.723.656-.404 1.403-.607 2.241-.607 1.295 0 2.341.449 3.137 1.345.803.897 1.205 2.089 1.205 3.577v.115c0 .925-.179 1.757-.537 2.496a4 4 0 01-1.52 1.713c-.656.41-1.412.616-2.268.616-1.289 0-2.335-.448-3.137-1.345-.797-.896-1.196-2.083-1.196-3.56v-.114zm1.635.194c0 1.054.243 1.901.73 2.54.492.638 1.148.958 1.968.958.826 0 1.483-.323 1.969-.967.486-.65.73-1.559.73-2.725 0-1.043-.249-1.887-.748-2.531-.492-.65-1.148-.976-1.968-.976-.803 0-1.45.32-1.943.958-.492.64-.738 1.553-.738 2.743zm13.658-3.402a4.868 4.868 0 00-.8-.061c-1.066 0-1.79.454-2.17 1.362V27h-1.626v-9.51h1.582l.026 1.099c.533-.85 1.289-1.274 2.268-1.274.316 0 .556.04.72.122v1.512zm3.033-1.459l.043 1.055c.698-.82 1.638-1.23 2.822-1.23 1.33 0 2.235.51 2.716 1.529a3.609 3.609 0 011.23-1.108c.51-.28 1.11-.422 1.802-.422 2.086 0 3.146 1.105 3.181 3.314V27h-1.626v-6.275c0-.68-.155-1.187-.465-1.52-.311-.34-.832-.51-1.565-.51-.603 0-1.104.181-1.503.544-.398.358-.63.841-.694 1.45V27h-1.635v-6.231c0-1.383-.677-2.075-2.03-2.075-1.067 0-1.796.454-2.189 1.363V27h-1.626v-9.51h1.539zM240.814 27c-.093-.188-.169-.521-.228-1.002-.756.785-1.658 1.178-2.707 1.178-.938 0-1.708-.264-2.312-.791-.597-.533-.896-1.207-.896-2.022 0-.99.375-1.758 1.125-2.302.756-.551 1.816-.827 3.182-.827h1.582v-.747c0-.568-.17-1.02-.51-1.353-.34-.34-.841-.51-1.503-.51-.58 0-1.067.146-1.459.44-.393.292-.589.647-.589 1.063h-1.635c0-.475.167-.932.501-1.371.34-.445.797-.797 1.371-1.055a4.645 4.645 0 011.908-.387c1.095 0 1.954.276 2.575.827.621.545.943 1.298.967 2.258v4.377c0 .873.111 1.568.334 2.083V27h-1.706zm-2.698-1.24c.51 0 .993-.131 1.45-.395.457-.263.788-.606.994-1.028v-1.951h-1.275c-1.992 0-2.988.583-2.988 1.749 0 .51.17.908.51 1.195.339.287.776.43 1.309.43zm8.824-10.573v2.303h1.776v1.257h-1.776v5.898c0 .38.08.668.238.86.158.188.427.282.808.282.188 0 .446-.035.774-.105V27a4.716 4.716 0 01-1.248.176c-.727 0-1.275-.22-1.644-.66-.369-.439-.554-1.063-.554-1.871v-5.898h-1.731V17.49h1.731v-2.302h1.626zM252.39 27h-1.626v-9.51h1.626V27zm-1.758-12.032c0-.264.079-.487.237-.668.164-.182.404-.273.721-.273.316 0 .556.091.721.273a.96.96 0 01.246.668.93.93 0 01-.246.659c-.165.176-.405.264-.721.264-.317 0-.557-.088-.721-.264a.95.95 0 01-.237-.66zm3.937 7.19c0-.932.182-1.77.545-2.514.369-.745.879-1.319 1.53-1.723.656-.404 1.403-.607 2.241-.607 1.295 0 2.341.449 3.137 1.345.803.897 1.205 2.089 1.205 3.577v.115c0 .925-.179 1.757-.537 2.496a4 4 0 01-1.52 1.713c-.656.41-1.412.616-2.268.616-1.289 0-2.335-.448-3.137-1.345-.797-.896-1.196-2.083-1.196-3.56v-.114zm1.635.193c0 1.054.243 1.901.73 2.54.492.638 1.148.958 1.968.958.827 0 1.483-.323 1.969-.967.486-.65.73-1.559.73-2.725 0-1.043-.249-1.887-.747-2.531-.493-.65-1.149-.976-1.969-.976-.803 0-1.45.32-1.943.958-.492.64-.738 1.553-.738 2.743zm10.6-4.86l.052 1.195c.727-.915 1.676-1.372 2.848-1.372 2.01 0 3.024 1.134 3.041 3.402V27h-1.626v-6.293c-.006-.686-.164-1.192-.474-1.52-.305-.329-.783-.493-1.433-.493-.527 0-.99.141-1.389.422-.398.282-.709.65-.931 1.108V27h-1.626v-9.51h1.538z" fill="#fff"/></svg>