<svg width="930" height="42" viewBox="0 0 930 42" fill="none" xmlns="http://www.w3.org/2000/svg"><path fill="#5ECCEF" d="M0 0h930v42H0z"/><path d="M24.173 21.99V27h-1.688V14.203h4.72c1.4 0 2.496.357 3.287 1.072.797.715 1.195 1.661 1.195 2.84 0 1.241-.39 2.2-1.168 2.873-.774.668-1.884 1.002-3.331 1.002h-3.015zm0-1.38h3.032c.902 0 1.594-.21 2.074-.633.48-.427.721-1.042.721-1.845 0-.762-.24-1.371-.72-1.828-.481-.457-1.14-.695-1.978-.712h-3.13v5.018zm14.01-1.66a4.874 4.874 0 00-.8-.062c-1.067 0-1.79.454-2.171 1.362V27h-1.626v-9.51h1.582l.026 1.099c.533-.85 1.29-1.274 2.268-1.274.316 0 .557.04.72.122v1.512zm.896 3.207c0-.931.182-1.77.545-2.513.37-.745.879-1.319 1.53-1.723.656-.404 1.403-.607 2.24-.607 1.296 0 2.341.449 3.138 1.345.803.897 1.204 2.089 1.204 3.577v.115c0 .925-.178 1.757-.536 2.496a4.005 4.005 0 01-1.52 1.713c-.657.41-1.412.616-2.268.616-1.289 0-2.335-.448-3.138-1.345-.797-.896-1.195-2.083-1.195-3.56v-.114zm1.635.194c0 1.054.243 1.901.73 2.54.491.638 1.148.958 1.968.958.826 0 1.483-.323 1.969-.967.486-.65.73-1.559.73-2.725 0-1.043-.25-1.887-.748-2.531-.492-.65-1.148-.976-1.968-.976-.803 0-1.45.32-1.943.958-.492.64-.738 1.553-.738 2.743zm8.666-.185c0-1.459.346-2.63 1.037-3.516.691-.89 1.597-1.335 2.716-1.335 1.113 0 1.995.38 2.645 1.142V13.5h1.626V27H55.91l-.079-1.02c-.65.797-1.556 1.196-2.716 1.196-1.101 0-2-.451-2.698-1.354-.691-.902-1.037-2.08-1.037-3.533v-.123zm1.626.185c0 1.078.222 1.922.668 2.53.445.61 1.06.915 1.846.915 1.03 0 1.784-.463 2.258-1.389V20.04c-.486-.896-1.233-1.345-2.24-1.345-.798 0-1.419.308-1.864.923-.446.615-.668 1.527-.668 2.734zm14.8 3.709c-.632.744-1.56 1.116-2.785 1.116-1.014 0-1.788-.293-2.32-.88-.528-.59-.795-1.464-.8-2.618V17.49h1.625v6.144c0 1.441.586 2.162 1.758 2.162 1.242 0 2.069-.463 2.479-1.389V17.49h1.626V27h-1.547l-.035-.94zm7.876-.211c.58 0 1.087-.176 1.52-.528.434-.351.674-.79.72-1.318h1.539c-.03.545-.217 1.063-.563 1.556a3.696 3.696 0 01-1.388 1.177 3.968 3.968 0 01-1.828.44c-1.295 0-2.326-.43-3.094-1.292-.762-.867-1.143-2.051-1.143-3.551v-.272c0-.926.17-1.75.51-2.47.34-.72.826-1.28 1.46-1.679.638-.398 1.39-.598 2.258-.598 1.066 0 1.951.32 2.654.959.71.638 1.087 1.467 1.134 2.487h-1.538c-.047-.616-.281-1.12-.703-1.512-.416-.398-.932-.598-1.547-.598-.826 0-1.468.3-1.925.897-.451.592-.677 1.45-.677 2.575v.308c0 1.095.226 1.94.677 2.53.451.593 1.096.889 1.934.889zm7.813-10.662v2.303h1.775v1.257h-1.775v5.898c0 .38.08.668.237.86.159.188.428.282.809.282.188 0 .445-.035.773-.105V27a4.714 4.714 0 01-1.248.176c-.726 0-1.274-.22-1.643-.66-.37-.439-.554-1.063-.554-1.871v-5.898h-1.731V17.49h1.731v-2.302h1.626zM91.41 27h-1.626V13.5h1.626V27zm4.377 0H94.16v-9.51h1.626V27zm-1.758-12.032c0-.264.08-.487.238-.668.164-.182.404-.273.72-.273.317 0 .557.091.721.273a.96.96 0 01.246.668.929.929 0 01-.246.659c-.164.176-.404.264-.72.264-.317 0-.557-.088-.721-.264a.949.949 0 01-.238-.66zm9.906 9.51c0-.44-.167-.78-.501-1.02-.329-.246-.906-.457-1.732-.633-.82-.176-1.473-.386-1.96-.633-.48-.246-.838-.539-1.072-.878-.229-.34-.343-.745-.343-1.213 0-.78.328-1.439.985-1.978.662-.539 1.505-.809 2.531-.809 1.078 0 1.951.279 2.619.835.674.557 1.011 1.269 1.011 2.136h-1.635c0-.445-.191-.829-.571-1.151-.375-.323-.85-.484-1.424-.484-.592 0-1.055.13-1.389.387-.334.258-.5.595-.5 1.01 0 .393.154.69.465.889.311.199.87.39 1.679.57.814.183 1.473.4 1.977.651.504.252.876.557 1.116.914.247.352.37.782.37 1.292 0 .85-.34 1.532-1.02 2.048-.68.51-1.561.765-2.645.765-.762 0-1.436-.135-2.022-.404-.586-.27-1.046-.645-1.38-1.125a2.759 2.759 0 01-.492-1.574h1.626c.03.545.246.979.65 1.301.411.316.95.475 1.618.475.615 0 1.107-.123 1.476-.37.375-.252.563-.585.563-1.002zm5.95-9.29v2.302h1.775v1.257h-1.775v5.898c0 .38.079.668.237.86.158.188.428.282.809.282.187 0 .445-.035.773-.105V27a4.716 4.716 0 01-1.248.176c-.726 0-1.274-.22-1.643-.66-.37-.439-.554-1.063-.554-1.871v-5.898h-1.732V17.49h1.732v-2.302h1.626z" fill="#fff"/></svg>