<svg width="44" height="14" viewBox="0 0 44 14" fill="none" xmlns="http://www.w3.org/2000/svg"><path d="M2.173 7.99V13H.485V.203h4.72c1.4 0 2.496.358 3.287 1.072.797.715 1.195 1.662 1.195 2.84 0 1.241-.39 2.2-1.168 2.873-.774.668-1.884 1.002-3.332 1.002H2.174zm0-1.38h3.032c.902 0 1.594-.21 2.074-.632C7.76 5.55 8 4.935 8 4.132c0-.762-.24-1.371-.72-1.828-.481-.457-1.14-.695-1.978-.712h-3.13V6.61zm14.01-1.66a4.872 4.872 0 00-.8-.062c-1.067 0-1.79.454-2.171 1.362V13h-1.626V3.49h1.582l.026 1.099c.533-.85 1.29-1.275 2.268-1.275.316 0 .557.041.72.123V4.95zm3.27 8.05h-1.627V3.49h1.626V13zM17.693.968c0-.264.08-.487.238-.668.164-.182.404-.273.72-.273.317 0 .557.091.721.273a.96.96 0 01.246.668.929.929 0 01-.246.659c-.164.176-.404.264-.72.264-.317 0-.557-.088-.721-.264a.949.949 0 01-.238-.66zm8.183 10.88c.58 0 1.087-.175 1.52-.527.434-.351.674-.79.721-1.318h1.538c-.029.545-.216 1.063-.562 1.556a3.696 3.696 0 01-1.389 1.177 3.967 3.967 0 01-1.828.44c-1.295 0-2.326-.43-3.094-1.292-.762-.867-1.142-2.051-1.142-3.551v-.272c0-.926.17-1.75.51-2.47.34-.72.826-1.28 1.458-1.679.639-.398 1.392-.598 2.26-.598 1.066 0 1.95.32 2.654.958.708.64 1.086 1.468 1.133 2.488h-1.538c-.047-.615-.281-1.12-.703-1.512-.416-.398-.932-.598-1.547-.598-.826 0-1.468.3-1.925.897-.45.592-.676 1.45-.676 2.575v.308c0 1.095.225 1.94.676 2.53.451.593 1.096.889 1.934.889zm9.554 1.328c-1.29 0-2.338-.422-3.147-1.266-.808-.85-1.213-1.983-1.213-3.401V8.21c0-.943.179-1.784.536-2.523.364-.744.868-1.324 1.512-1.74a3.803 3.803 0 012.11-.633c1.236 0 2.197.408 2.882 1.222.686.815 1.029 1.98 1.029 3.498v.677h-6.443c.024.937.296 1.696.818 2.276.527.575 1.195.862 2.004.862.574 0 1.06-.118 1.459-.352a3.666 3.666 0 001.045-.932l.994.774c-.797 1.224-1.993 1.837-3.586 1.837zm-.203-8.526c-.656 0-1.206.24-1.652.721-.445.475-.72 1.143-.826 2.004h4.764v-.123c-.047-.826-.27-1.465-.668-1.916-.399-.457-.938-.686-1.617-.686zm5.749 7.498c0-.282.082-.516.246-.704.17-.187.422-.28.755-.28.334 0 .587.093.756.28a.988.988 0 01.264.704c0 .269-.088.495-.264.676-.17.182-.422.273-.756.273s-.585-.091-.755-.273a.972.972 0 01-.246-.676zm.008-7.761c0-.282.082-.516.246-.703.17-.188.422-.282.756-.282s.586.094.756.282a.988.988 0 01.264.703c0 .27-.088.495-.264.676-.17.182-.422.273-.756.273s-.586-.09-.756-.273a.972.972 0 01-.246-.676z" fill="#000"/></svg>