<svg width="153" height="18" viewBox="0 0 153 18" fill="none" xmlns="http://www.w3.org/2000/svg"><path d="M7.648 7.654H1.232v5.871h7.313V14H.758V1.203h7.787v.475H1.232V7.18h6.416v.474zm3.586-.949c.31-.738.768-1.321 1.371-1.749a3.388 3.388 0 012.004-.642c1.02 0 1.776.29 2.268.87.498.575.75 1.445.756 2.61V14h-.475V7.777c-.006-1.02-.214-1.772-.624-2.258-.41-.493-1.06-.739-1.951-.739-.82 0-1.532.293-2.136.88-.597.58-1.002 1.33-1.213 2.25V14h-.474V4.49h.474v2.215zm10.45-4.781V4.49h2.163v.484h-2.162v6.75c0 .674.108 1.171.325 1.494.222.322.592.483 1.107.483.258 0 .572-.026.94-.079l.08.448c-.194.07-.525.106-.993.106-.692 0-1.187-.19-1.486-.572-.299-.386-.451-.993-.457-1.819V4.974h-1.758V4.49h1.758V1.924h.484zm8.051 12.252a3.867 3.867 0 01-2.118-.616 4.294 4.294 0 01-1.503-1.705c-.363-.72-.545-1.52-.545-2.399v-.395c0-.88.176-1.685.528-2.417.351-.733.835-1.304 1.45-1.714a3.555 3.555 0 012.013-.616c1.06 0 1.927.378 2.601 1.134.674.756 1.01 1.75 1.01 2.98v.5h-7.127v.52c0 .773.161 1.49.483 2.153a3.896 3.896 0 001.345 1.546 3.343 3.343 0 001.863.563c.639 0 1.181-.106 1.626-.316.451-.217.85-.548 1.196-.994l.334.238c-.71 1.025-1.761 1.538-3.156 1.538zm-.175-9.387c-.926 0-1.711.346-2.356 1.037-.644.686-1.022 1.562-1.134 2.628h6.627V8.34c0-.645-.137-1.242-.413-1.793a3.075 3.075 0 00-1.125-1.292 2.858 2.858 0 00-1.6-.466zm10.02.044l-.616-.053c-.809 0-1.486.264-2.03.791-.545.522-.903 1.254-1.073 2.198V14h-.474V4.49h.474v1.978c.258-.662.645-1.187 1.16-1.573.516-.387 1.164-.58 1.943-.58.275 0 .498.032.668.096l-.053.422zm13.411 4.5c0 1.482-.32 2.66-.958 3.533-.639.873-1.509 1.31-2.61 1.31-.72 0-1.363-.147-1.925-.44a3.297 3.297 0 01-1.318-1.213v5.133h-.475V4.49h.475v1.697a3.487 3.487 0 011.327-1.39c.556-.321 1.19-.483 1.898-.483 1.114 0 1.99.428 2.628 1.284.639.85.958 2.045.958 3.586v.149zm-.483-.185c0-1.365-.273-2.431-.818-3.199-.539-.773-1.297-1.16-2.276-1.16-.797 0-1.474.208-2.03.624-.557.41-.958 1.002-1.204 1.775v4.448c.246.656.647 1.166 1.204 1.529.562.358 1.245.536 2.048.536.972 0 1.728-.386 2.267-1.16.54-.773.809-1.904.809-3.393zm7.268-4.315l-.615-.053c-.809 0-1.485.264-2.03.791-.545.522-.903 1.254-1.072 2.198V14h-.475V4.49h.475v1.978c.257-.662.644-1.187 1.16-1.573.515-.387 1.163-.58 1.942-.58.276 0 .498.032.668.096l-.053.422zm.94 4.228c0-.909.174-1.723.52-2.444.35-.726.843-1.292 1.476-1.696.639-.404 1.36-.607 2.162-.607.797 0 1.512.197 2.145.59.632.392 1.125.949 1.476 1.67.358.72.54 1.531.545 2.434v.422c0 .914-.173 1.731-.519 2.452a3.988 3.988 0 01-1.476 1.687c-.633.405-1.35.607-2.153.607-.803 0-1.524-.2-2.162-.598-.633-.398-1.125-.955-1.477-1.67-.352-.72-.53-1.53-.536-2.426v-.421zm.475.369c0 .79.156 1.517.466 2.18.317.656.753 1.168 1.31 1.538.562.369 1.204.553 1.925.553 1.084 0 1.965-.407 2.645-1.222.686-.814 1.028-1.863 1.028-3.146v-.272c0-.78-.158-1.5-.474-2.163-.317-.662-.756-1.177-1.319-1.546a3.32 3.32 0 00-1.898-.563c-1.084 0-1.969.413-2.654 1.24-.686.825-1.029 1.866-1.029 3.12v.28zm9.721-.282c0-1.517.32-2.7.958-3.55.639-.856 1.515-1.284 2.628-1.284.715 0 1.345.162 1.89.484.55.322.996.803 1.336 1.441V.5h.474V14h-.474v-1.52c-.323.539-.765.957-1.328 1.256-.562.293-1.2.44-1.915.44-1.102 0-1.972-.437-2.61-1.31-.64-.873-.959-2.071-.959-3.595v-.123zm.492.185c0 1.348.267 2.414.8 3.2.533.779 1.29 1.168 2.268 1.168.785 0 1.456-.173 2.012-.518.557-.352.97-.865 1.24-1.538V7.188c-.545-1.6-1.623-2.399-3.235-2.399-.972 0-1.731.384-2.276 1.151-.54.768-.809 1.899-.809 3.393zM87.585 14v-1.538a3.133 3.133 0 01-1.23 1.257c-.54.304-1.222.457-2.048.457-1.038 0-1.817-.302-2.338-.905-.516-.61-.78-1.495-.791-2.655V4.49h.474v6.144c.012 1.008.24 1.772.686 2.294.445.515 1.096.773 1.951.773.908 0 1.647-.214 2.215-.641.568-.428.929-1.055 1.081-1.881V4.49h.483V14h-.483zm6.715-.299c.861 0 1.57-.228 2.127-.685.562-.457.87-1.09.923-1.899h.474c-.047.92-.401 1.661-1.063 2.224-.662.557-1.483.835-2.461.835-1.19 0-2.136-.43-2.84-1.292-.696-.861-1.045-2.03-1.045-3.507V9.06c0-1.442.349-2.593 1.046-3.455.703-.86 1.644-1.292 2.821-1.292 1.008 0 1.84.302 2.496.906.657.603 1.005 1.406 1.046 2.408h-.474c-.041-.856-.343-1.541-.906-2.057-.556-.521-1.277-.782-2.162-.782-1.06 0-1.892.384-2.496 1.151-.597.762-.896 1.823-.896 3.182v.308c0 1.33.301 2.376.905 3.137.61.756 1.444 1.134 2.505 1.134zm6.978-11.777V4.49h2.162v.484h-2.162v6.75c0 .674.109 1.171.326 1.494.222.322.591.483 1.107.483.258 0 .571-.026.94-.079l.079.448c-.193.07-.524.106-.993.106-.691 0-1.186-.19-1.485-.572-.299-.386-.451-.993-.457-1.819V4.974h-1.758V4.49h1.758V1.924h.483zm9.413 4.781c.311-.738.768-1.321 1.371-1.749a3.39 3.39 0 012.004-.642c1.02 0 1.776.29 2.268.87.498.575.75 1.445.756 2.61V14h-.475V7.777c-.006-1.02-.214-1.772-.624-2.258-.41-.493-1.06-.739-1.951-.739-.82 0-1.532.293-2.136.88-.597.58-1.002 1.33-1.213 2.25V14h-.474V4.49h.474v2.215zM126.222 14c-.118-.404-.176-.984-.176-1.74a3.817 3.817 0 01-1.538 1.415c-.651.334-1.386.5-2.206.5-.879 0-1.588-.237-2.127-.711-.533-.48-.8-1.105-.8-1.872 0-.873.393-1.57 1.178-2.092.791-.527 1.84-.797 3.146-.809h2.347V7.303c0-.797-.252-1.415-.756-1.855-.498-.44-1.213-.659-2.144-.659-.868 0-1.591.223-2.171.668-.58.445-.871.996-.871 1.652l-.474-.017c0-.774.34-1.43 1.019-1.969.68-.539 1.512-.809 2.497-.809 1.025 0 1.839.258 2.443.774.603.51.914 1.23.932 2.162v4.544c0 1.043.082 1.752.246 2.127V14h-.545zm-3.92-.29c.89 0 1.655-.2 2.294-.598a3.695 3.695 0 001.45-1.678v-2.26h-2.197c-1.36 0-2.4.27-3.12.81-.586.439-.879.987-.879 1.643 0 .58.231 1.072.694 1.476.463.405 1.049.607 1.758.607zm14.089.29h-.475V7.61c-.006-.955-.217-1.664-.633-2.127-.41-.468-1.066-.703-1.969-.703-1.043 0-1.895.46-2.557 1.38a4.617 4.617 0 00-.782 1.828V14h-.484V4.49h.484v2.25c.322-.773.782-1.37 1.379-1.793a3.369 3.369 0 011.987-.633c.797 0 1.447.176 1.951.528.51.351.844.926 1.002 1.722a3.453 3.453 0 011.371-1.634 3.827 3.827 0 012.127-.616c1.025 0 1.787.29 2.285.87.504.58.759 1.45.765 2.61V14h-.475V7.83c0-1.043-.211-1.813-.633-2.311-.416-.504-1.072-.75-1.968-.739-1.155.018-2.069.478-2.743 1.38-.386.522-.597 1.026-.632 1.512V14zm12.753.176a3.87 3.87 0 01-2.119-.616 4.306 4.306 0 01-1.503-1.705c-.363-.72-.544-1.52-.544-2.399v-.395c0-.88.175-1.685.527-2.417.351-.733.835-1.304 1.45-1.714a3.555 3.555 0 012.013-.616c1.06 0 1.928.378 2.601 1.134.674.756 1.011 1.75 1.011 2.98v.5h-7.128v.52c0 .773.161 1.49.484 2.153a3.896 3.896 0 001.344 1.546 3.345 3.345 0 001.864.563c.638 0 1.18-.106 1.626-.316a3.357 3.357 0 001.195-.994l.334.238c-.709 1.025-1.761 1.538-3.155 1.538zm-.176-9.387c-.926 0-1.711.346-2.356 1.037-.644.686-1.022 1.562-1.133 2.628h6.626V8.34c0-.645-.137-1.242-.413-1.793a3.067 3.067 0 00-1.125-1.292 2.854 2.854 0 00-1.599-.466z" fill="#000"/></svg>