<svg width="89" height="15" viewBox="0 0 89 15" fill="none" xmlns="http://www.w3.org/2000/svg"><path d="M4.667 8.384H.537v-.475h4.13v.475zm5.344 0H5.88v-.475h4.13v.475zm15.442 1.696c-.123 1.318-.577 2.332-1.362 3.041-.785.703-1.852 1.055-3.2 1.055-.908 0-1.713-.229-2.416-.686-.698-.463-1.24-1.116-1.626-1.96-.387-.85-.583-1.82-.59-2.909V6.644c0-1.09.191-2.063.572-2.918.38-.862.923-1.527 1.626-1.996.709-.468 1.52-.703 2.435-.703 1.335 0 2.399.352 3.19 1.055.791.703 1.248 1.711 1.371 3.023h-.474c-.135-1.177-.545-2.07-1.231-2.68-.686-.615-1.638-.923-2.856-.923-1.243 0-2.247.469-3.015 1.406-.762.938-1.143 2.195-1.143 3.77V8.56c0 1.007.17 1.9.51 2.68.34.774.826 1.377 1.46 1.81.638.434 1.367.651 2.188.651 1.224 0 2.18-.302 2.865-.905.691-.604 1.098-1.509 1.221-2.716h.475zm3.2-3.375c.31-.738.767-1.321 1.37-1.749a3.388 3.388 0 012.004-.642c1.02 0 1.776.29 2.268.87.498.575.75 1.445.756 2.61V14h-.475V7.777c-.006-1.02-.214-1.772-.624-2.258-.41-.493-1.06-.739-1.951-.739-.82 0-1.532.293-2.136.88-.597.58-1.002 1.33-1.213 2.25V14h-.474V.5h.474v6.205zm8.665 2.356c0-.909.173-1.723.519-2.444.351-.726.844-1.292 1.476-1.696.64-.404 1.36-.607 2.163-.607.797 0 1.511.197 2.144.59.633.392 1.125.949 1.477 1.67.357.72.539 1.531.545 2.434v.422c0 .914-.173 1.731-.519 2.452a3.987 3.987 0 01-1.476 1.687c-.633.405-1.351.607-2.154.607-.803 0-1.523-.2-2.162-.598-.633-.398-1.125-.955-1.477-1.67-.351-.72-.53-1.53-.536-2.426v-.421zm.475.369c0 .79.155 1.517.466 2.18.316.656.753 1.168 1.31 1.538.562.369 1.203.553 1.924.553 1.084 0 1.966-.407 2.646-1.222.685-.814 1.028-1.863 1.028-3.146v-.272c0-.78-.158-1.5-.475-2.163-.316-.662-.755-1.177-1.318-1.546a3.319 3.319 0 00-1.898-.563c-1.084 0-1.97.413-2.655 1.24-.685.825-1.028 1.866-1.028 3.12v.28zm9.44-.37c0-.908.172-1.722.518-2.443.352-.726.844-1.292 1.477-1.696.638-.404 1.359-.607 2.162-.607.797 0 1.511.197 2.144.59.633.392 1.125.949 1.477 1.67.357.72.539 1.531.545 2.434v.422c0 .914-.173 1.731-.519 2.452a3.988 3.988 0 01-1.477 1.687c-.632.405-1.35.607-2.153.607-.802 0-1.523-.2-2.162-.598-.633-.398-1.125-.955-1.476-1.67-.352-.72-.53-1.53-.537-2.426v-.421zm.474.37c0 .79.155 1.517.466 2.18.316.656.753 1.168 1.31 1.538.562.369 1.204.553 1.924.553 1.084 0 1.966-.407 2.646-1.222.685-.814 1.028-1.863 1.028-3.146v-.272c0-.78-.158-1.5-.475-2.163-.316-.662-.755-1.177-1.318-1.546a3.32 3.32 0 00-1.898-.563c-1.084 0-1.97.413-2.655 1.24-.685.825-1.028 1.866-1.028 3.12v.28zm16.023 2.24c0-1.153-.985-1.939-2.954-2.355-1.183-.252-2.007-.574-2.47-.966-.462-.399-.694-.944-.694-1.635 0-.697.293-1.272.88-1.723.591-.451 1.359-.677 2.302-.677 1.025 0 1.849.247 2.47.739.62.486.931 1.145.931 1.977h-.483c0-.638-.27-1.172-.809-1.6-.539-.427-1.242-.64-2.11-.64-.831 0-1.49.18-1.977.544-.486.363-.73.817-.73 1.362 0 .428.092.765.273 1.011.182.24.478.46.888.66.41.193 1.008.38 1.793.562.785.181 1.406.395 1.863.641.457.246.788.54.994.88.205.333.307.743.307 1.23 0 .75-.307 1.353-.923 1.81-.615.457-1.42.686-2.417.686-1.066 0-1.927-.24-2.584-.72-.65-.487-.975-1.111-.975-1.873h.474c.047.668.34 1.19.88 1.565.544.369 1.28.553 2.205.553.85 0 1.538-.196 2.066-.589.533-.398.8-.879.8-1.441zm6.521 2.506a3.867 3.867 0 01-2.118-.616 4.295 4.295 0 01-1.503-1.705c-.363-.72-.545-1.52-.545-2.399v-.395c0-.88.176-1.685.527-2.417.352-.733.835-1.304 1.45-1.714a3.555 3.555 0 012.013-.616c1.06 0 1.928.378 2.602 1.134.674.756 1.01 1.75 1.01 2.98v.5H66.56v.52c0 .773.16 1.49.483 2.153a3.895 3.895 0 001.345 1.546 3.343 3.343 0 001.863.563c.639 0 1.18-.106 1.626-.316.451-.217.85-.548 1.195-.994l.334.238c-.709 1.025-1.76 1.538-3.155 1.538zm-.176-9.387c-.926 0-1.71.346-2.355 1.037-.645.686-1.023 1.562-1.134 2.628h6.627V8.34c0-.645-.138-1.242-.413-1.793a3.073 3.073 0 00-1.125-1.292 2.858 2.858 0 00-1.6-.466zm13.29 3.595h-4.132v-.475h4.131v.475zm5.343 0h-4.13v-.475h4.13v.475z" fill="#000"/></svg>