<svg width="82" height="17" viewBox="0 0 82 17" fill="none" xmlns="http://www.w3.org/2000/svg"><path d="M7.648 6.654H1.232v5.871h7.313V13H.758V.203h7.787v.475H1.232V6.18h6.416v.474zm3.586-.949c.31-.738.768-1.321 1.371-1.749a3.388 3.388 0 012.004-.642c1.02 0 1.776.29 2.268.87.498.575.75 1.445.756 2.61V13h-.475V6.777c-.006-1.02-.214-1.772-.624-2.258-.41-.493-1.06-.739-1.951-.739-.82 0-1.532.293-2.136.88-.597.58-1.002 1.33-1.213 2.25V13h-.474V3.49h.474v2.215zM21.684.924V3.49h2.163v.484h-2.162v6.75c0 .674.108 1.171.325 1.494.222.322.592.483 1.107.483.258 0 .572-.026.94-.079l.08.448c-.194.07-.525.106-.993.106-.692 0-1.187-.19-1.486-.572-.299-.386-.451-.993-.457-1.819V3.974h-1.758V3.49h1.758V.924h.484zm8.051 12.252a3.867 3.867 0 01-2.118-.616 4.294 4.294 0 01-1.503-1.705c-.363-.72-.545-1.52-.545-2.399v-.395c0-.88.176-1.685.528-2.417.351-.733.835-1.304 1.45-1.714a3.555 3.555 0 012.013-.616c1.06 0 1.927.378 2.601 1.134.674.756 1.01 1.75 1.01 2.98v.5h-7.127v.52c0 .773.161 1.49.483 2.153a3.896 3.896 0 001.345 1.546 3.343 3.343 0 001.863.563c.639 0 1.181-.106 1.626-.316.451-.217.85-.548 1.196-.994l.334.238c-.71 1.025-1.761 1.538-3.156 1.538zm-.175-9.387c-.926 0-1.711.346-2.356 1.037-.644.686-1.022 1.562-1.134 2.628h6.627V7.34c0-.645-.137-1.242-.413-1.793a3.075 3.075 0 00-1.125-1.292 2.858 2.858 0 00-1.6-.466zm10.02.044l-.616-.053c-.809 0-1.486.264-2.03.791-.545.522-.903 1.254-1.073 2.198V13h-.474V3.49h.474v1.978c.258-.662.645-1.187 1.16-1.573.516-.387 1.164-.58 1.943-.58.275 0 .498.032.668.096l-.053.422zm13.411 4.5c0 1.482-.32 2.66-.958 3.533-.639.873-1.509 1.31-2.61 1.31-.72 0-1.363-.147-1.925-.44a3.297 3.297 0 01-1.318-1.213v5.133h-.475V3.49h.475v1.697a3.487 3.487 0 011.327-1.39c.556-.321 1.19-.483 1.898-.483 1.114 0 1.99.428 2.628 1.284.639.85.958 2.045.958 3.586v.149zm-.483-.185c0-1.365-.273-2.431-.818-3.199-.539-.773-1.297-1.16-2.276-1.16-.797 0-1.474.208-2.03.624-.557.41-.958 1.002-1.204 1.775v4.448c.246.656.647 1.166 1.204 1.529.562.358 1.245.536 2.048.536.972 0 1.728-.386 2.267-1.16.54-.773.809-1.904.809-3.393zm7.268-4.315l-.615-.053c-.809 0-1.485.264-2.03.791-.545.522-.903 1.254-1.072 2.198V13h-.475V3.49h.475v1.978c.257-.662.644-1.187 1.16-1.573.515-.387 1.163-.58 1.942-.58.276 0 .498.032.668.096l-.053.422zM62.202 13h-.474V3.49h.474V13zM61.482.52c0-.135.046-.25.14-.343.094-.1.208-.15.343-.15.135 0 .249.05.343.15.1.094.149.208.149.343 0 .134-.05.249-.15.342a.466.466 0 01-.342.14.466.466 0 01-.343-.14.466.466 0 01-.14-.342zM68.547 12.7c.861 0 1.57-.228 2.127-.685.562-.457.87-1.09.923-1.899h.474c-.047.92-.401 1.661-1.063 2.224-.662.557-1.483.835-2.461.835-1.19 0-2.136-.43-2.839-1.292-.697-.861-1.046-2.03-1.046-3.507V8.06c0-1.442.349-2.593 1.046-3.455.703-.86 1.644-1.292 2.821-1.292 1.008 0 1.84.302 2.496.906.657.603 1.005 1.406 1.046 2.408h-.474c-.041-.856-.343-1.541-.906-2.057-.556-.521-1.277-.782-2.162-.782-1.06 0-1.892.384-2.496 1.151-.598.762-.896 1.823-.896 3.182v.308c0 1.33.301 2.376.905 3.137.61.756 1.444 1.134 2.505 1.134zm9.334.475a3.867 3.867 0 01-2.118-.616 4.295 4.295 0 01-1.503-1.705c-.364-.72-.545-1.52-.545-2.399v-.395c0-.88.176-1.685.527-2.417.352-.733.835-1.304 1.45-1.714a3.555 3.555 0 012.013-.616c1.06 0 1.928.378 2.602 1.134.673.756 1.01 1.75 1.01 2.98v.5H74.19v.52c0 .773.162 1.49.484 2.153a3.896 3.896 0 001.345 1.546 3.343 3.343 0 001.863.563c.638 0 1.18-.106 1.626-.316.451-.217.85-.548 1.195-.994l.334.238c-.709 1.025-1.76 1.538-3.155 1.538zm-.176-9.387c-.926 0-1.71.346-2.355 1.037-.645.686-1.023 1.562-1.134 2.628h6.627V7.34c0-.645-.138-1.242-.413-1.793a3.075 3.075 0 00-1.125-1.292 2.858 2.858 0 00-1.6-.466z" fill="#000"/></svg>