<svg width="107" height="17" viewBox="0 0 107 17" fill="none" xmlns="http://www.w3.org/2000/svg"><path d="M7.648 6.654H1.232v5.871h7.313V13H.758V.203h7.787v.475H1.232V6.18h6.416v.474zm3.586-.949c.31-.738.768-1.321 1.371-1.749a3.388 3.388 0 012.004-.642c1.02 0 1.776.29 2.268.87.498.575.75 1.445.756 2.61V13h-.475V6.777c-.006-1.02-.214-1.772-.624-2.258-.41-.493-1.06-.739-1.951-.739-.82 0-1.532.293-2.136.88-.597.58-1.002 1.33-1.213 2.25V13h-.474V3.49h.474v2.215zM21.684.924V3.49h2.163v.484h-2.162v6.75c0 .674.108 1.171.325 1.494.222.322.592.483 1.107.483.258 0 .572-.026.94-.079l.08.448c-.194.07-.525.106-.993.106-.692 0-1.187-.19-1.486-.572-.299-.386-.451-.993-.457-1.819V3.974h-1.758V3.49h1.758V.924h.484zm8.051 12.252a3.867 3.867 0 01-2.118-.616 4.294 4.294 0 01-1.503-1.705c-.363-.72-.545-1.52-.545-2.399v-.395c0-.88.176-1.685.528-2.417.351-.733.835-1.304 1.45-1.714a3.555 3.555 0 012.013-.616c1.06 0 1.927.378 2.601 1.134.674.756 1.01 1.75 1.01 2.98v.5h-7.127v.52c0 .773.161 1.49.483 2.153a3.896 3.896 0 001.345 1.546 3.343 3.343 0 001.863.563c.639 0 1.181-.106 1.626-.316.451-.217.85-.548 1.196-.994l.334.238c-.71 1.025-1.761 1.538-3.156 1.538zm-.175-9.387c-.926 0-1.711.346-2.356 1.037-.644.686-1.022 1.562-1.134 2.628h6.627V7.34c0-.645-.137-1.242-.413-1.793a3.075 3.075 0 00-1.125-1.292 2.858 2.858 0 00-1.6-.466zm10.02.044l-.616-.053c-.809 0-1.486.264-2.03.791-.545.522-.903 1.254-1.073 2.198V13h-.474V3.49h.474v1.978c.258-.662.645-1.187 1.16-1.573.516-.387 1.164-.58 1.943-.58.275 0 .498.032.668.096l-.053.422zm5.703 4.315c0-1.517.32-2.7.958-3.55.639-.856 1.515-1.284 2.628-1.284.71 0 1.342.162 1.899.484.556.322.999.785 1.327 1.389V3.49h.474v13.166h-.474v-5.133c-.34.534-.791.944-1.354 1.23-.556.282-1.186.423-1.89.423-1.101 0-1.971-.437-2.61-1.31-.639-.873-.958-2.071-.958-3.595v-.123zm.492.185c0 1.348.267 2.414.8 3.2.533.779 1.29 1.168 2.268 1.168.785 0 1.456-.173 2.012-.518.557-.352.97-.865 1.24-1.538V6.188c-.276-.79-.692-1.388-1.248-1.792-.557-.405-1.22-.607-1.987-.607-.972 0-1.731.384-2.276 1.151-.54.768-.809 1.899-.809 3.393zM61.956 13v-1.538a3.134 3.134 0 01-1.23 1.257c-.54.304-1.222.457-2.048.457-1.037 0-1.817-.302-2.338-.905-.516-.61-.78-1.495-.791-2.655V3.49h.474v6.144c.012 1.008.24 1.772.686 2.294.445.515 1.096.773 1.951.773.908 0 1.647-.214 2.215-.641.568-.428.929-1.055 1.081-1.881V3.49h.483V13h-.483zm9.633 0c-.117-.404-.176-.984-.176-1.74a3.815 3.815 0 01-1.538 1.415c-.65.334-1.386.5-2.206.5-.879 0-1.588-.237-2.127-.711-.533-.48-.8-1.105-.8-1.872 0-.873.393-1.57 1.178-2.092.79-.527 1.84-.797 3.146-.809h2.347V6.303c0-.797-.252-1.415-.756-1.855-.498-.44-1.213-.659-2.144-.659-.868 0-1.591.223-2.171.668-.58.445-.87.996-.87 1.652l-.475-.017c0-.774.34-1.43 1.02-1.969.68-.539 1.511-.809 2.496-.809 1.025 0 1.84.258 2.443.774.604.51.914 1.23.932 2.162v4.544c0 1.043.082 1.752.246 2.127V13h-.545zm-3.92-.29c.89 0 1.655-.2 2.294-.598a3.694 3.694 0 001.45-1.678v-2.26h-2.197c-1.36 0-2.4.27-3.12.81-.586.439-.88.987-.88 1.643 0 .58.232 1.072.695 1.476.463.405 1.049.607 1.758.607zm7.76-7.005c.311-.738.768-1.321 1.372-1.749a3.388 3.388 0 012.004-.642c1.02 0 1.775.29 2.267.87.498.575.75 1.445.756 2.61V13h-.475V6.777c-.005-1.02-.213-1.772-.623-2.258-.41-.493-1.061-.739-1.952-.739-.82 0-1.532.293-2.135.88-.598.58-1.002 1.33-1.213 2.25V13h-.475V3.49h.475v2.215zM85.88.924V3.49h2.163v.484H85.88v6.75c0 .674.108 1.171.325 1.494.223.322.592.483 1.108.483.257 0 .57-.026.94-.079l.079.448c-.193.07-.524.106-.993.106-.692 0-1.187-.19-1.486-.572-.298-.386-.45-.993-.456-1.819V3.974h-1.758V3.49h1.758V.924h.483zM91.102 13h-.475V3.49h.475V13zM90.38.52c0-.135.047-.25.14-.343.094-.1.209-.15.343-.15.135 0 .25.05.343.15.1.094.15.208.15.343 0 .134-.05.249-.15.342a.467.467 0 01-.343.14.467.467 0 01-.343-.14.467.467 0 01-.14-.342zm4.904.404V3.49h2.162v.484h-2.162v6.75c0 .674.109 1.171.325 1.494.223.322.592.483 1.108.483.258 0 .571-.026.94-.079l.08.448c-.194.07-.525.106-.994.106-.691 0-1.186-.19-1.485-.572-.299-.386-.451-.993-.457-1.819V3.974h-1.758V3.49h1.758V.924h.483zm7.541 11.338l.062-.176 3.287-8.596h.527l-4.254 11.162-.211.528c-.457 1.107-1.213 1.66-2.267 1.66-.34 0-.575-.031-.703-.096l-.01-.448c.188.053.402.079.642.079.498 0 .912-.146 1.24-.44.328-.287.612-.758.852-1.415l.58-1.573-3.788-9.457h.519l3.524 8.772z" fill="#000"/></svg>