<svg width="46" height="13" viewBox="0 0 46 13" fill="none" xmlns="http://www.w3.org/2000/svg"><path d="M4.38 7.247C3.174 6.9 2.295 6.475 1.743 5.972a2.458 2.458 0 01-.82-1.875c0-.84.334-1.533 1.003-2.08.674-.552 1.548-.828 2.622-.828.733 0 1.385.142 1.956.425.576.283 1.02.674 1.333 1.172a2.98 2.98 0 01.476 1.633H6.899c0-.644-.205-1.15-.615-1.516-.41-.37-.989-.556-1.736-.556-.693 0-1.235.153-1.626.461-.385.303-.578.725-.578 1.267 0 .435.183.803.55 1.106.37.298.998.571 1.881.82.89.25 1.582.525 2.08.828.503.298.874.647 1.114 1.047.244.4.366.872.366 1.414 0 .864-.337 1.558-1.01 2.08-.675.518-1.575.777-2.703.777a5.05 5.05 0 01-2.051-.418c-.635-.283-1.126-.669-1.472-1.157a2.83 2.83 0 01-.513-1.663H2c0 .645.236 1.155.71 1.53.478.372 1.116.558 1.912.558.742 0 1.31-.152 1.706-.454.396-.303.593-.716.593-1.238 0-.523-.183-.926-.549-1.209-.366-.288-1.03-.571-1.992-.85zm8.84 4.9c-1.074 0-1.948-.352-2.622-1.055-.674-.708-1.01-1.653-1.01-2.835v-.249c0-.786.148-1.487.446-2.102.303-.62.723-1.103 1.26-1.45a3.17 3.17 0 011.758-.527c1.03 0 1.83.34 2.402 1.018.571.678.857 1.65.857 2.915v.564h-5.369c.02.781.247 1.413.681 1.897.44.478.997.717 1.67.717.479 0 .884-.097 1.216-.292.332-.196.623-.454.872-.777l.828.645c-.665 1.02-1.66 1.53-2.989 1.53zm-.168-7.105c-.547 0-1.006.2-1.377.6-.371.396-.6.953-.689 1.67h3.97V7.21c-.039-.689-.225-1.22-.557-1.597-.332-.38-.78-.571-1.347-.571zM22.778 12c-.078-.156-.141-.435-.19-.835-.63.654-1.382.982-2.256.982-.781 0-1.423-.22-1.926-.66-.498-.444-.747-1.006-.747-1.684 0-.825.312-1.465.937-1.92.63-.458 1.514-.688 2.652-.688h1.318v-.622c0-.474-.142-.85-.425-1.128-.283-.283-.7-.425-1.252-.425-.484 0-.889.122-1.216.366-.327.244-.49.54-.49.886H17.82c0-.395.139-.776.417-1.142a2.894 2.894 0 011.143-.879 3.87 3.87 0 011.59-.322c.912 0 1.628.23 2.145.688.518.454.786 1.082.806 1.883v3.647c0 .727.093 1.306.278 1.736V12h-1.42zm-2.248-1.033c.425 0 .827-.11 1.208-.33.381-.219.657-.505.828-.856V8.155h-1.062c-1.66 0-2.49.486-2.49 1.457 0 .425.141.757.425.996.283.24.646.36 1.09.36zm9.345-5.676a4.061 4.061 0 00-.666-.051c-.889 0-1.492.378-1.81 1.135V12h-1.354V4.075h1.318l.022.916c.445-.708 1.074-1.062 1.89-1.062.264 0 .464.034.6.102v1.26zm4.285 5.75c.484 0 .906-.147 1.267-.44.362-.293.562-.66.6-1.099h1.283c-.025.455-.181.887-.47 1.297a3.08 3.08 0 01-1.156.981 3.307 3.307 0 01-1.524.367c-1.079 0-1.938-.36-2.578-1.077-.635-.723-.952-1.71-.952-2.96v-.226c0-.772.142-1.458.425-2.058.283-.6.688-1.067 1.215-1.4.533-.331 1.16-.497 1.883-.497.889 0 1.626.266 2.212.798.59.532.905 1.223.945 2.073h-1.282c-.04-.513-.234-.933-.586-1.26-.347-.332-.776-.498-1.29-.498-.688 0-1.222.249-1.603.747-.376.493-.564 1.209-.564 2.146v.256c0 .913.188 1.617.564 2.11.376.493.913.74 1.611.74zm6.028-6.006c.6-.738 1.382-1.106 2.344-1.106 1.675 0 2.52.945 2.534 2.834V12H43.71V6.756c-.005-.571-.137-.994-.396-1.267-.253-.274-.651-.41-1.193-.41-.44 0-.826.117-1.158.351-.332.235-.59.542-.776.923V12h-1.355V.75h1.355v4.285z" fill="#000" fill-opacity=".4"/></svg>