<svg width="114" height="15" viewBox="0 0 114 15" fill="none" xmlns="http://www.w3.org/2000/svg"><path d="M2.173 8.99V14H.485V1.203h4.72c1.4 0 2.496.358 3.287 1.072.797.715 1.195 1.662 1.195 2.84 0 1.241-.39 2.2-1.168 2.873-.774.668-1.884 1.002-3.332 1.002H2.174zm0-1.38h3.032c.902 0 1.594-.21 2.074-.632C7.76 6.55 8 5.935 8 5.132c0-.762-.24-1.371-.72-1.828-.481-.457-1.14-.695-1.978-.712h-3.13V7.61zm14.01-1.66a4.872 4.872 0 00-.8-.062c-1.067 0-1.79.454-2.171 1.362V14h-1.626V4.49h1.582l.026 1.099c.533-.85 1.29-1.275 2.268-1.275.316 0 .557.041.72.123V5.95zm.896 3.207c0-.931.182-1.77.545-2.513.37-.745.879-1.319 1.53-1.723.656-.404 1.403-.607 2.24-.607 1.296 0 2.341.449 3.138 1.345.803.897 1.204 2.09 1.204 3.577v.115c0 .925-.178 1.757-.536 2.496a4.005 4.005 0 01-1.52 1.713c-.657.41-1.412.616-2.268.616-1.289 0-2.335-.449-3.138-1.345-.797-.896-1.195-2.083-1.195-3.56v-.114zm1.635.194c0 1.054.243 1.901.73 2.54.492.638 1.148.958 1.968.958.826 0 1.483-.323 1.969-.967.486-.65.73-1.559.73-2.725 0-1.043-.25-1.886-.748-2.531-.492-.65-1.148-.976-1.968-.976-.803 0-1.45.32-1.943.958-.492.64-.738 1.553-.738 2.743zm8.666-.185c0-1.459.346-2.63 1.037-3.516.691-.89 1.597-1.336 2.716-1.336 1.113 0 1.995.381 2.645 1.143V.5h1.626V14H33.91l-.079-1.02c-.65.797-1.556 1.196-2.716 1.196-1.101 0-2-.451-2.698-1.354-.691-.902-1.037-2.08-1.037-3.533v-.123zm1.626.185c0 1.078.223 1.921.668 2.53.445.61 1.06.915 1.846.915 1.03 0 1.784-.463 2.258-1.389V7.04c-.486-.896-1.233-1.345-2.24-1.345-.798 0-1.419.308-1.864.923-.445.615-.668 1.527-.668 2.734zm14.8 3.709c-.632.744-1.56 1.116-2.785 1.116-1.014 0-1.788-.293-2.32-.88-.528-.59-.795-1.464-.8-2.618V4.49h1.625v6.144c0 1.441.586 2.162 1.758 2.162 1.242 0 2.069-.463 2.479-1.389V4.49h1.626V14h-1.547l-.035-.94zm7.876-.211c.58 0 1.087-.176 1.52-.528.434-.351.674-.79.72-1.318h1.539c-.03.545-.217 1.063-.563 1.556a3.696 3.696 0 01-1.388 1.177 3.968 3.968 0 01-1.828.44c-1.295 0-2.327-.43-3.094-1.292-.762-.867-1.143-2.051-1.143-3.551v-.272c0-.926.17-1.75.51-2.47.34-.72.826-1.28 1.46-1.679.638-.398 1.39-.598 2.258-.598 1.066 0 1.951.32 2.654.958.71.64 1.087 1.468 1.134 2.488h-1.538c-.047-.615-.281-1.12-.703-1.512-.416-.398-.932-.598-1.547-.598-.826 0-1.468.3-1.925.897-.451.592-.677 1.45-.677 2.575v.308c0 1.095.226 1.94.677 2.53.451.593 1.096.889 1.934.889zm7.813-10.662V4.49h1.776v1.257h-1.776v5.898c0 .38.08.668.237.86.159.188.428.282.809.282.188 0 .445-.035.774-.105V14a4.714 4.714 0 01-1.249.176c-.726 0-1.274-.22-1.643-.66-.37-.439-.554-1.063-.554-1.871V5.747h-1.731V4.49h1.731V2.187h1.626zM77.732 14h-1.696l-6.442-9.861V14h-1.697V1.203h1.697l6.46 9.905V1.203h1.678V14zm8.614 0c-.094-.188-.17-.521-.229-1.002-.756.785-1.658 1.178-2.707 1.178-.937 0-1.708-.264-2.311-.791-.598-.533-.897-1.207-.897-2.022 0-.99.375-1.758 1.125-2.302.756-.551 1.817-.827 3.182-.827h1.582v-.747c0-.568-.17-1.02-.51-1.353-.34-.34-.84-.51-1.503-.51-.58 0-1.066.147-1.459.44-.392.292-.589.647-.589 1.063h-1.635c0-.475.168-.932.502-1.371.34-.445.796-.797 1.37-1.055a4.643 4.643 0 011.908-.387c1.096 0 1.954.276 2.575.827.621.545.943 1.297.967 2.258v4.377c0 .873.111 1.568.334 2.083V14h-1.705zm-2.699-1.24c.51 0 .994-.131 1.45-.395.458-.263.789-.606.994-1.028V9.386h-1.275c-1.992 0-2.988.583-2.988 1.749 0 .51.17.908.51 1.195.34.287.776.43 1.31.43zm8.148-8.27l.044 1.055c.697-.82 1.638-1.23 2.821-1.23 1.33 0 2.236.51 2.716 1.529a3.615 3.615 0 011.23-1.108c.51-.28 1.11-.422 1.802-.422 2.086 0 3.147 1.105 3.182 3.314V14h-1.626V7.725c0-.68-.155-1.187-.466-1.52-.31-.34-.832-.51-1.564-.51-.604 0-1.105.181-1.503.544-.399.358-.63.841-.695 1.45V14h-1.634V7.769c0-1.383-.677-2.075-2.03-2.075-1.067 0-1.797.454-2.19 1.363V14h-1.625V4.49h1.538zm18.202 9.686c-1.289 0-2.338-.422-3.146-1.266-.809-.85-1.213-1.983-1.213-3.401V9.21c0-.943.178-1.784.536-2.523.363-.744.867-1.324 1.512-1.74a3.8 3.8 0 012.109-.633c1.236 0 2.197.408 2.883 1.222.685.815 1.028 1.98 1.028 3.498v.677h-6.442c.023.937.296 1.696.817 2.276.527.575 1.195.862 2.004.862.574 0 1.061-.118 1.459-.352a3.675 3.675 0 001.046-.932l.993.774c-.797 1.224-1.992 1.837-3.586 1.837zm-.202-8.526c-.656 0-1.207.24-1.652.721-.446.475-.721 1.143-.827 2.004h4.764v-.123c-.047-.826-.269-1.465-.668-1.916-.398-.457-.937-.686-1.617-.686z" fill="#000"/></svg>