<svg width="42" height="15" viewBox="0 0 42 15" fill="none" xmlns="http://www.w3.org/2000/svg"><path d="M9.898 9.94c-.158 1.353-.659 2.399-1.502 3.137-.838.733-1.955 1.099-3.35 1.099-1.51 0-2.724-.542-3.638-1.626C.5 11.466.046 10.016.046 8.2V6.968c0-1.19.21-2.236.633-3.138.427-.902 1.031-1.594 1.81-2.074.78-.486 1.682-.73 2.707-.73 1.36 0 2.45.381 3.27 1.143.82.756 1.298 1.805 1.432 3.146H8.202c-.146-1.02-.466-1.757-.958-2.214-.486-.457-1.169-.686-2.048-.686-1.078 0-1.925.398-2.54 1.195-.61.797-.914 1.931-.914 3.402v1.239c0 1.389.29 2.493.87 3.313.58.82 1.392 1.23 2.435 1.23.937 0 1.655-.21 2.153-.632.504-.428.838-1.169 1.002-2.224h1.696zm1.626-.783c0-.931.182-1.77.545-2.513.37-.745.88-1.319 1.53-1.723.656-.404 1.403-.607 2.24-.607 1.296 0 2.342.449 3.138 1.345.803.897 1.205 2.09 1.205 3.577v.115c0 .925-.18 1.757-.537 2.496a4.005 4.005 0 01-1.52 1.713c-.656.41-1.412.616-2.268.616-1.289 0-2.334-.449-3.137-1.345-.797-.896-1.196-2.083-1.196-3.56v-.114zm1.635.194c0 1.054.243 1.901.73 2.54.492.638 1.148.958 1.968.958.827 0 1.483-.323 1.97-.967.485-.65.729-1.559.729-2.725 0-1.043-.25-1.886-.747-2.531-.493-.65-1.149-.976-1.97-.976-.802 0-1.45.32-1.941.958-.493.64-.739 1.553-.739 2.743zM23.987 14h-1.626V.5h1.626V14zm2.18-4.843c0-.931.182-1.77.545-2.513.37-.745.879-1.319 1.53-1.723.655-.404 1.402-.607 2.24-.607 1.295 0 2.341.449 3.138 1.345.803.897 1.204 2.09 1.204 3.577v.115c0 .925-.178 1.757-.536 2.496a4.005 4.005 0 01-1.52 1.713c-.657.41-1.413.616-2.268.616-1.29 0-2.335-.449-3.138-1.345-.797-.896-1.195-2.083-1.195-3.56v-.114zm1.635.194c0 1.054.243 1.901.73 2.54.491.638 1.148.958 1.968.958.826 0 1.482-.323 1.969-.967.486-.65.73-1.559.73-2.725 0-1.043-.25-1.886-.748-2.531-.492-.65-1.148-.976-1.969-.976-.802 0-1.45.32-1.942.958-.492.64-.738 1.553-.738 2.743zM41.46 5.949a4.872 4.872 0 00-.8-.061c-1.066 0-1.79.454-2.17 1.362V14h-1.627V4.49h1.582l.027 1.099c.533-.85 1.289-1.275 2.267-1.275.317 0 .557.041.721.123V5.95z" fill="#000"/></svg>