<svg width="84" height="18" viewBox="0 0 84 18" fill="none" xmlns="http://www.w3.org/2000/svg"><path d="M10.327 2.592H6.214V14H4.535V2.592H.431V1.203h9.896v1.389zm.334 6.565c0-.931.182-1.77.545-2.513.37-.745.879-1.319 1.53-1.723.656-.404 1.403-.607 2.24-.607 1.295 0 2.341.449 3.138 1.345.803.897 1.204 2.09 1.204 3.577v.115c0 .925-.178 1.757-.536 2.496a4.004 4.004 0 01-1.52 1.713c-.657.41-1.412.616-2.268.616-1.289 0-2.335-.449-3.138-1.345-.796-.896-1.195-2.083-1.195-3.56v-.114zm1.635.194c0 1.054.243 1.901.73 2.54.492.638 1.148.958 1.968.958.826 0 1.483-.323 1.969-.967.486-.65.73-1.559.73-2.725 0-1.043-.25-1.886-.748-2.531-.492-.65-1.148-.976-1.968-.976-.803 0-1.45.32-1.943.958-.492.64-.738 1.553-.738 2.743zm11.268-7.164V4.49h1.775v1.257h-1.775v5.898c0 .38.079.668.237.86.158.188.428.282.808.282.188 0 .446-.035.774-.105V14a4.713 4.713 0 01-1.248.176c-.727 0-1.275-.22-1.644-.66-.369-.439-.553-1.063-.553-1.871V5.747h-1.732V4.49h1.732V2.187h1.626zM33.117 14c-.094-.188-.17-.521-.228-1.002-.756.785-1.659 1.178-2.707 1.178-.938 0-1.708-.264-2.312-.791-.598-.533-.896-1.207-.896-2.022 0-.99.375-1.758 1.125-2.302.756-.551 1.816-.827 3.181-.827h1.582v-.747c0-.568-.17-1.02-.51-1.353-.34-.34-.84-.51-1.502-.51-.58 0-1.067.147-1.46.44-.392.292-.588.647-.588 1.063h-1.635c0-.475.167-.932.501-1.371.34-.445.797-.797 1.371-1.055a4.643 4.643 0 011.907-.387c1.096 0 1.954.276 2.576.827.62.545.943 1.297.966 2.258v4.377c0 .873.112 1.568.334 2.083V14h-1.705zm-2.698-1.24c.51 0 .993-.131 1.45-.395.457-.263.788-.606.993-1.028V9.386h-1.274c-1.992 0-2.988.583-2.988 1.749 0 .51.17.908.51 1.195.34.287.776.43 1.309.43zM38.804 14h-1.626V.5h1.626V14zm15.108-4.65c0 1.448-.33 2.614-.993 3.499-.662.884-1.559 1.327-2.69 1.327-1.154 0-2.062-.366-2.724-1.099v4.58h-1.626V4.49h1.485l.08 1.055c.661-.82 1.581-1.23 2.76-1.23 1.142 0 2.044.43 2.706 1.291.668.862 1.002 2.06 1.002 3.595v.15zm-1.626-.184c0-1.072-.228-1.919-.685-2.54-.457-.621-1.084-.932-1.881-.932-.985 0-1.723.437-2.215 1.31v4.544c.486.867 1.23 1.3 2.232 1.3.78 0 1.398-.307 1.855-.922.463-.621.694-1.541.694-2.76zm8.297-3.217a4.872 4.872 0 00-.8-.061c-1.066 0-1.79.454-2.17 1.362V14h-1.627V4.49h1.582l.027 1.099c.533-.85 1.289-1.275 2.267-1.275.317 0 .557.041.721.123V5.95zM63.853 14h-1.626V4.49h1.626V14zM62.094 1.968c0-.264.079-.487.237-.668.164-.182.404-.273.72-.273.317 0 .557.091.721.273a.96.96 0 01.246.668.929.929 0 01-.246.659c-.164.176-.404.264-.72.264-.317 0-.557-.088-.721-.264a.949.949 0 01-.237-.66zm8.182 10.88c.58 0 1.087-.175 1.52-.527.434-.351.675-.79.722-1.318h1.538c-.03.545-.217 1.063-.563 1.556a3.696 3.696 0 01-1.388 1.177 3.968 3.968 0 01-1.829.44c-1.295 0-2.326-.43-3.093-1.292-.762-.867-1.143-2.051-1.143-3.551v-.272c0-.926.17-1.75.51-2.47.34-.72.826-1.28 1.459-1.679.638-.398 1.391-.598 2.259-.598 1.066 0 1.95.32 2.654.958.709.64 1.087 1.468 1.134 2.488h-1.538c-.047-.615-.282-1.12-.704-1.512-.416-.398-.931-.598-1.546-.598-.827 0-1.468.3-1.925.897-.451.592-.677 1.45-.677 2.575v.308c0 1.095.226 1.94.677 2.53.45.593 1.096.889 1.933.889zm9.554 1.328c-1.289 0-2.338-.422-3.146-1.266-.809-.85-1.213-1.983-1.213-3.401V9.21c0-.943.178-1.784.536-2.523.363-.744.867-1.324 1.511-1.74a3.803 3.803 0 012.11-.633c1.236 0 2.197.408 2.883 1.222.685.815 1.028 1.98 1.028 3.498v.677h-6.442c.023.937.296 1.696.817 2.276.527.575 1.195.862 2.004.862.574 0 1.06-.118 1.459-.352a3.666 3.666 0 001.046-.932l.993.774c-.797 1.224-1.992 1.837-3.586 1.837zM79.63 5.65c-.656 0-1.207.24-1.652.721-.446.475-.721 1.143-.827 2.004h4.764v-.123c-.047-.826-.27-1.465-.668-1.916-.398-.457-.937-.686-1.617-.686z" fill="#000"/></svg>