<svg width="22" height="14" viewBox="0 0 22 14" fill="none" xmlns="http://www.w3.org/2000/svg"><path d="M10.32 13H8.624L2.182 3.139V13H.485V.203h1.697l6.46 9.905V.203h1.678V13zm2.312-4.843c0-.931.181-1.77.545-2.513.369-.745.879-1.319 1.53-1.723.655-.404 1.402-.607 2.24-.607 1.295 0 2.341.449 3.138 1.345.803.897 1.204 2.09 1.204 3.577v.115c0 .925-.179 1.757-.536 2.496a4.004 4.004 0 01-1.52 1.713c-.657.41-1.413.616-2.268.616-1.29 0-2.335-.449-3.138-1.345-.797-.896-1.195-2.083-1.195-3.56v-.114zm1.635.194c0 1.054.243 1.901.73 2.54.491.638 1.148.958 1.968.958.826 0 1.482-.323 1.969-.967.486-.65.73-1.559.73-2.725 0-1.043-.25-1.886-.748-2.531-.492-.65-1.148-.976-1.969-.976-.802 0-1.45.32-1.942.958-.492.64-.738 1.553-.738 2.743z" fill="#000"/></svg>