<svg width="33" height="15" viewBox="0 0 33 15" fill="none" xmlns="http://www.w3.org/2000/svg"><path d="M1.232 8.595V14H.758V1.203h3.999c1.306 0 2.32.331 3.04.993.727.657 1.09 1.57 1.09 2.742 0 1.16-.354 2.057-1.063 2.69-.703.633-1.705.955-3.006.967H1.232zm0-.475h3.525c1.154 0 2.05-.278 2.69-.835.644-.556.966-1.333.966-2.329 0-1.031-.322-1.834-.967-2.408-.638-.58-1.535-.87-2.69-.87H1.233V8.12zm9.247.94c0-.908.172-1.722.518-2.443.352-.726.844-1.292 1.477-1.696.638-.404 1.359-.607 2.162-.607.797 0 1.512.197 2.144.59.633.392 1.125.949 1.477 1.67.357.72.539 1.531.545 2.434v.422c0 .914-.173 1.731-.519 2.452a3.988 3.988 0 01-1.476 1.687c-.633.405-1.35.607-2.154.607-.802 0-1.523-.2-2.162-.598-.633-.398-1.125-.955-1.476-1.67-.352-.72-.53-1.53-.537-2.426v-.421zm.474.37c0 .79.155 1.517.466 2.18.316.656.753 1.168 1.31 1.538.562.369 1.204.553 1.924.553 1.084 0 1.966-.407 2.646-1.222.685-.814 1.028-1.863 1.028-3.146v-.272c0-.78-.158-1.5-.475-2.163-.316-.662-.755-1.177-1.318-1.546a3.32 3.32 0 00-1.898-.563c-1.084 0-1.969.413-2.655 1.24-.685.825-1.028 1.866-1.028 3.12v.28zM21.703 14h-.476V.5h.475V14zm2.399-4.94c0-.908.172-1.722.518-2.443.352-.726.844-1.292 1.477-1.696.638-.404 1.36-.607 2.162-.607.797 0 1.511.197 2.144.59.633.392 1.125.949 1.477 1.67.357.72.539 1.531.545 2.434v.422c0 .914-.173 1.731-.519 2.452a3.987 3.987 0 01-1.476 1.687c-.633.405-1.35.607-2.154.607-.802 0-1.523-.2-2.162-.598-.633-.398-1.125-.955-1.476-1.67-.352-.72-.53-1.53-.536-2.426v-.421zm.474.37c0 .79.155 1.517.466 2.18.316.656.753 1.168 1.31 1.538.562.369 1.204.553 1.924.553 1.084 0 1.966-.407 2.646-1.222.685-.814 1.028-1.863 1.028-3.146v-.272c0-.78-.158-1.5-.474-2.163-.317-.662-.756-1.177-1.319-1.546a3.319 3.319 0 00-1.898-.563c-1.084 0-1.969.413-2.654 1.24-.686.825-1.029 1.866-1.029 3.12v.28z" fill="#000"/></svg>