<svg width="41" height="15" viewBox="0 0 41 15" fill="none" xmlns="http://www.w3.org/2000/svg"><path d="M.758 14V1.203h3.366c1.377 0 2.417.281 3.12.844.71.557 1.064 1.368 1.064 2.434 0 .774-.197 1.415-.59 1.925-.392.51-.946.835-1.66.976a3.194 3.194 0 012.021 1.055c.54.591.809 1.271.809 2.039 0 1.09-.355 1.95-1.064 2.584-.703.627-1.684.94-2.944.94H.758zm.474-6.32v5.845h3.7c1.085 0 1.934-.266 2.55-.8.62-.538.931-1.283.931-2.232 0-.808-.299-1.473-.896-1.995-.598-.527-1.398-.8-2.4-.817H1.232zm0-.474H4.3c1.166 0 2.045-.223 2.637-.668.591-.451.887-1.148.887-2.092 0-1.816-1.198-2.739-3.595-2.768H1.232v5.528zM11.964 14h-.475V.5h.475V14zm9.263 0c-.117-.404-.175-.984-.175-1.74a3.815 3.815 0 01-1.538 1.415c-.65.334-1.386.5-2.206.5-.88 0-1.588-.237-2.127-.711-.533-.48-.8-1.105-.8-1.872 0-.873.392-1.57 1.178-2.092.79-.527 1.84-.797 3.146-.809h2.347V7.303c0-.797-.252-1.415-.756-1.855-.498-.44-1.213-.659-2.145-.659-.867 0-1.59.223-2.17.668-.58.445-.87.996-.87 1.652l-.475-.017c0-.774.34-1.43 1.02-1.969.679-.539 1.511-.809 2.495-.809 1.026 0 1.84.258 2.444.774.603.51.914 1.23.931 2.162v4.544c0 1.043.082 1.752.247 2.127V14h-.546zm-3.92-.29c.891 0 1.656-.2 2.295-.598a3.694 3.694 0 001.45-1.678v-2.26h-2.197c-1.36 0-2.4.27-3.12.81-.587.439-.88.987-.88 1.643 0 .58.232 1.072.695 1.476.463.405 1.049.607 1.758.607zm10.512-.009c.862 0 1.57-.228 2.127-.685.563-.457.87-1.09.923-1.899h.475c-.047.92-.402 1.661-1.064 2.224-.662.557-1.482.835-2.46.835-1.19 0-2.136-.43-2.84-1.292-.697-.861-1.045-2.03-1.045-3.507V9.06c0-1.442.348-2.593 1.046-3.455.703-.86 1.643-1.292 2.82-1.292 1.009 0 1.84.302 2.497.906.656.603 1.005 1.406 1.046 2.408h-.475c-.04-.856-.343-1.541-.905-2.057-.557-.521-1.277-.782-2.162-.782-1.06 0-1.893.384-2.496 1.151-.598.762-.897 1.823-.897 3.182v.308c0 1.33.302 2.376.905 3.137.61.756 1.445 1.134 2.505 1.134zm7.787-4.843l-.017.018-1.38 1.187V14h-.475V.5h.475v9.044l1.116-1.055L39.65 4.49h.677l-4.368 4.052L40.598 14h-.615l-4.377-5.142z" fill="#000"/></svg>