<svg width="58" height="14" viewBox="0 0 58 14" fill="none" xmlns="http://www.w3.org/2000/svg"><path d="M4.792 13h-.475V.8L.644 2.18v-.518L4.695.168h.097V13zm12.823-5.22c0 1.716-.334 3.046-1.002 3.99-.668.937-1.605 1.406-2.812 1.406-1.201 0-2.142-.475-2.822-1.424-.68-.95-1.019-2.285-1.019-4.008v-2.32c0-1.7.334-3.024 1.002-3.973C11.636.496 12.576.02 13.783.02c1.213 0 2.154.477 2.822 1.432.673.95 1.01 2.285 1.01 4.008v2.32zm-.474-2.356c0-1.553-.293-2.763-.88-3.63-.58-.867-1.405-1.3-2.478-1.3-1.078 0-1.907.436-2.487 1.309-.574.867-.861 2.089-.861 3.665v2.294c0 1.547.295 2.757.887 3.63.592.873 1.418 1.31 2.479 1.31 1.066 0 1.89-.437 2.47-1.31.58-.873.87-2.098.87-3.674V5.424zm10.336 2.355c0 1.717-.334 3.047-1.002 3.99-.668.938-1.606 1.407-2.813 1.407-1.201 0-2.142-.475-2.821-1.424-.68-.95-1.02-2.285-1.02-4.008v-2.32c0-1.7.334-3.024 1.002-3.973C21.497.496 22.437.02 23.645.02c1.212 0 2.153.477 2.82 1.432.675.95 1.012 2.285 1.012 4.008v2.32zm-.475-2.355c0-1.553-.293-2.763-.879-3.63-.58-.867-1.406-1.3-2.479-1.3-1.078 0-1.907.436-2.487 1.309-.574.867-.861 2.089-.861 3.665v2.294c0 1.547.296 2.757.888 3.63.591.873 1.418 1.31 2.478 1.31 1.067 0 1.89-.437 2.47-1.31.58-.873.87-2.098.87-3.674V5.424zm10.336 2.355c0 1.717-.334 3.047-1.002 3.99-.668.938-1.605 1.407-2.813 1.407-1.2 0-2.141-.475-2.82-1.424-.68-.95-1.02-2.285-1.02-4.008v-2.32c0-1.7.334-3.024 1.002-3.973C31.358.496 32.299.02 33.505.02c1.214 0 2.154.477 2.822 1.432.674.95 1.01 2.285 1.01 4.008v2.32zm-.475-2.355c0-1.553-.293-2.763-.879-3.63-.58-.867-1.406-1.3-2.478-1.3-1.078 0-1.907.436-2.487 1.309-.575.867-.862 2.089-.862 3.665v2.294c0 1.547.296 2.757.888 3.63.592.873 1.418 1.31 2.478 1.31 1.067 0 1.89-.437 2.47-1.31.58-.873.87-2.098.87-3.674V5.424zM47.2 7.779c0 1.717-.334 3.047-1.002 3.99-.668.938-1.605 1.407-2.812 1.407-1.201 0-2.142-.475-2.822-1.424-.68-.95-1.02-2.285-1.02-4.008v-2.32c0-1.7.335-3.024 1.003-3.973C41.22.496 42.16.02 43.367.02c1.213 0 2.154.477 2.822 1.432.673.95 1.01 2.285 1.01 4.008v2.32zm-.474-2.355c0-1.553-.293-2.763-.88-3.63-.58-.867-1.405-1.3-2.478-1.3-1.078 0-1.907.436-2.487 1.309-.574.867-.861 2.089-.861 3.665v2.294c0 1.547.296 2.757.887 3.63.592.873 1.418 1.31 2.479 1.31 1.066 0 1.89-.437 2.47-1.31.58-.873.87-2.098.87-3.674V5.424zM57.06 7.779c0 1.717-.333 3.047-1.001 3.99-.668.938-1.606 1.407-2.813 1.407-1.201 0-2.142-.475-2.821-1.424-.68-.95-1.02-2.285-1.02-4.008v-2.32c0-1.7.334-3.024 1.002-3.973C51.081.496 52.022.02 53.23.02c1.212 0 2.153.477 2.82 1.432.675.95 1.011 2.285 1.011 4.008v2.32zm-.474-2.355c0-1.553-.293-2.763-.879-3.63-.58-.867-1.406-1.3-2.479-1.3-1.078 0-1.907.436-2.487 1.309-.574.867-.861 2.089-.861 3.665v2.294c0 1.547.296 2.757.888 3.63.591.873 1.417 1.31 2.478 1.31 1.066 0 1.89-.437 2.47-1.31.58-.873.87-2.098.87-3.674V5.424z" fill="#000"/></svg>