<svg width="8" height="13" viewBox="0 0 8 13" fill="none" xmlns="http://www.w3.org/2000/svg"><path d="M8 13H.345v-.475L4.713 7.49c.715-.838 1.245-1.582 1.59-2.232.352-.65.528-1.248.528-1.793 0-.938-.272-1.664-.817-2.18C5.469.763 4.7.502 3.71.502c-.598 0-1.143.144-1.635.43a3.076 3.076 0 00-1.16 1.196 3.46 3.46 0 00-.413 1.687H.028c0-.685.159-1.32.475-1.907A3.515 3.515 0 011.82.528a3.63 3.63 0 011.89-.5c1.137 0 2.021.301 2.654.905.633.603.95 1.447.95 2.53 0 .997-.56 2.19-1.68 3.578l-.8.976L.97 12.525H8V13z" fill="#000"/></svg>