<svg width="72" height="33" viewBox="0 0 72 33" fill="none" xmlns="http://www.w3.org/2000/svg"><rect width="72" height="33" rx="5" fill="#D32C2C"/><rect x=".5" y=".5" width="71" height="32" rx="4.5" stroke="#000" stroke-opacity=".22"/><path d="M22.149 17.686h-2.505V22h-1.413V11.336h3.53c1.2 0 2.124.273 2.768.82.65.547.974 1.343.974 2.388 0 .664-.18 1.243-.542 1.736-.356.493-.854.862-1.494 1.106l2.505 4.526V22h-1.509l-2.314-4.314zm-2.505-1.15h2.16c.699 0 1.253-.18 1.663-.542.415-.361.623-.845.623-1.45 0-.66-.198-1.165-.593-1.516-.391-.352-.957-.53-1.7-.535h-2.153v4.043zm10.913 5.61c-1.074 0-1.948-.351-2.622-1.054-.674-.708-1.01-1.653-1.01-2.835v-.249c0-.786.148-1.486.446-2.102.303-.62.723-1.103 1.26-1.45a3.169 3.169 0 011.758-.527c1.03 0 1.83.34 2.402 1.018.571.679.857 1.65.857 2.915v.564h-5.369c.02.781.247 1.413.681 1.897.44.478.996.718 1.67.718.479 0 .884-.098 1.216-.293.332-.196.623-.454.872-.777l.827.645c-.664 1.02-1.66 1.53-2.988 1.53zm-.168-7.104c-.547 0-1.006.2-1.377.6-.371.396-.6.953-.689 1.67h3.97v-.102c-.04-.689-.225-1.22-.557-1.597-.332-.38-.78-.571-1.347-.571zm9.448 4.856c0-.366-.14-.65-.418-.85-.273-.205-.754-.38-1.442-.527-.684-.146-1.228-.322-1.634-.527-.4-.205-.698-.45-.893-.733-.19-.283-.286-.62-.286-1.01 0-.65.273-1.2.82-1.649.552-.449 1.255-.673 2.11-.673.898 0 1.626.232 2.182.695.562.464.843 1.058.843 1.78h-1.363c0-.37-.158-.69-.476-.96-.312-.268-.708-.402-1.186-.402-.493 0-.88.107-1.157.322a1.014 1.014 0 00-.418.842c0 .328.13.574.388.74.259.166.725.325 1.4.476.678.152 1.227.332 1.647.542.42.21.73.464.93.762.205.293.308.652.308 1.077 0 .708-.283 1.277-.85 1.706-.566.425-1.301.637-2.204.637-.635 0-1.197-.112-1.685-.336a2.777 2.777 0 01-1.15-.938 2.3 2.3 0 01-.41-1.311h1.355c.025.454.205.816.542 1.084.342.264.791.396 1.348.396.512 0 .922-.103 1.23-.308.313-.21.469-.488.469-.835zm6.409 2.248c-1.075 0-1.949-.351-2.623-1.054-.673-.708-1.01-1.653-1.01-2.835v-.249c0-.786.149-1.486.447-2.102.302-.62.722-1.103 1.26-1.45a3.169 3.169 0 011.757-.527c1.03 0 1.831.34 2.403 1.018.57.679.856 1.65.856 2.915v.564h-5.368c.02.781.246 1.413.68 1.897.44.478.997.718 1.67.718.48 0 .885-.098 1.217-.293.332-.196.622-.454.871-.777l.828.645c-.664 1.02-1.66 1.53-2.988 1.53zm-.169-7.104c-.547 0-1.006.2-1.377.6-.37.396-.6.953-.688 1.67h3.97v-.102c-.04-.689-.225-1.22-.557-1.597-.332-.38-.781-.571-1.348-.571zm6.672-2.886v1.92h1.48v1.047h-1.48v4.914c0 .318.066.557.198.718.132.156.357.234.674.234.156 0 .371-.029.645-.088V22a3.926 3.926 0 01-1.04.146c-.606 0-1.062-.183-1.37-.549-.308-.366-.462-.886-.462-1.56v-4.914h-1.442v-1.048h1.443v-1.919h1.354z" fill="#fff"/></svg>