<svg width="72" height="33" viewBox="0 0 72 33" fill="none" xmlns="http://www.w3.org/2000/svg"><rect width="72" height="33" rx="5" fill="#D32C2C"/><rect x=".5" y=".5" width="71" height="32" rx="4.5" stroke="#000" stroke-opacity=".22"/><path d="M16.238 22V11.336h3.01c.928 0 1.748.205 2.461.615.713.41 1.262.994 1.648 1.75.39.758.588 1.627.593 2.608v.681c0 1.006-.195 1.887-.586 2.644a4.068 4.068 0 01-1.662 1.743c-.718.406-1.556.613-2.513.623h-2.951zm1.406-9.507v8.357h1.48c1.084 0 1.926-.337 2.526-1.01.606-.674.909-1.634.909-2.88v-.622c0-1.21-.286-2.15-.857-2.82-.567-.673-1.372-1.015-2.417-1.025h-1.641zm11.514 9.653c-1.075 0-1.949-.351-2.622-1.054-.674-.708-1.011-1.653-1.011-2.835v-.249c0-.786.149-1.486.447-2.102.302-.62.722-1.103 1.26-1.45a3.17 3.17 0 011.757-.527c1.03 0 1.831.34 2.403 1.018.57.679.857 1.65.857 2.915v.564h-5.37c.02.781.247 1.413.682 1.897.44.478.996.718 1.67.718.478 0 .884-.098 1.216-.293.332-.196.622-.454.871-.777l.828.645c-.664 1.02-1.66 1.53-2.988 1.53zm-.169-7.104c-.547 0-1.006.2-1.377.6-.37.396-.6.953-.688 1.67h3.97v-.102c-.04-.689-.225-1.22-.557-1.597-.332-.38-.781-.571-1.348-.571zM35.295 22H33.94V10.75h1.355V22zm5.464.146c-1.074 0-1.948-.351-2.622-1.054-.674-.708-1.01-1.653-1.01-2.835v-.249c0-.786.148-1.486.446-2.102.303-.62.723-1.103 1.26-1.45a3.169 3.169 0 011.758-.527c1.03 0 1.83.34 2.402 1.018.572.679.857 1.65.857 2.915v.564h-5.369c.02.781.247 1.413.682 1.897.44.478.996.718 1.67.718.478 0 .883-.098 1.215-.293.332-.196.623-.454.872-.777l.828.645c-.664 1.02-1.66 1.53-2.989 1.53zm-.168-7.104c-.547 0-1.006.2-1.377.6-.371.396-.6.953-.689 1.67h3.97v-.102c-.039-.689-.224-1.22-.556-1.597-.333-.38-.782-.571-1.348-.571zm6.672-2.886v1.92h1.48v1.047h-1.48v4.914c0 .318.066.557.198.718.132.156.356.234.674.234.156 0 .37-.029.644-.088V22a3.926 3.926 0 01-1.04.146c-.605 0-1.062-.183-1.37-.549-.307-.366-.46-.886-.46-1.56v-4.914h-1.444v-1.048h1.443v-1.919h1.355zm6.358 9.99c-1.075 0-1.949-.351-2.623-1.054-.673-.708-1.01-1.653-1.01-2.835v-.249c0-.786.149-1.486.447-2.102.302-.62.722-1.103 1.26-1.45a3.169 3.169 0 011.757-.527c1.03 0 1.831.34 2.403 1.018.57.679.856 1.65.856 2.915v.564h-5.368c.02.781.246 1.413.68 1.897.44.478.997.718 1.67.718.48 0 .885-.098 1.217-.293.332-.196.622-.454.871-.777l.828.645c-.664 1.02-1.66 1.53-2.988 1.53zm-.169-7.104c-.547 0-1.006.2-1.377.6-.37.396-.6.953-.688 1.67h3.97v-.102c-.04-.689-.225-1.22-.557-1.597-.332-.38-.781-.571-1.348-.571z" fill="#fff"/></svg>