<svg width="59" height="33" viewBox="0 0 59 33" fill="none" xmlns="http://www.w3.org/2000/svg"><rect width="59" height="33" rx="5" fill="#FFD43D"/><rect x=".5" y=".5" width="58" height="32" rx="4.5" stroke="#000" stroke-opacity=".22"/><path d="M21.266 17.07h-4.622v3.78h5.369V22h-6.775V11.336h6.701v1.157h-5.295v3.428h4.622v1.15zm1.809.902c0-1.216.288-2.193.864-2.93.576-.742 1.33-1.113 2.263-1.113.928 0 1.663.317 2.205.952V10.75h1.355V22h-1.245l-.066-.85c-.542.665-1.297.997-2.264.997-.918 0-1.667-.377-2.248-1.128-.576-.752-.864-1.734-.864-2.945v-.102zm1.355.153c0 .899.185 1.602.556 2.11.371.508.884.762 1.538.762.86 0 1.487-.386 1.883-1.158V16.2c-.405-.747-1.028-1.12-1.868-1.12-.664 0-1.182.256-1.553.769-.37.512-.556 1.272-.556 2.277zM33.343 22h-1.355v-7.925h1.355V22zm-1.465-10.027c0-.22.066-.405.198-.557.137-.15.337-.226.6-.226.264 0 .465.075.601.226a.8.8 0 01.205.557c0 .22-.068.403-.205.55-.136.146-.337.22-.6.22-.264 0-.464-.074-.6-.22a.79.79 0 01-.199-.55zm5.479.183v1.92h1.48v1.047h-1.48v4.914c0 .318.066.557.198.718.132.156.356.234.673.234.157 0 .372-.029.645-.088V22a3.926 3.926 0 01-1.04.146c-.605 0-1.062-.183-1.37-.549-.307-.366-.461-.886-.461-1.56v-4.914h-1.443v-1.048h1.443v-1.919h1.355z" fill="#000"/></svg>