<svg width="8" height="14" viewBox="0 0 8 14" fill="none" xmlns="http://www.w3.org/2000/svg"><path d="M7.754 7.78c0 1.716-.334 3.046-1.002 3.99-.668.937-1.606 1.406-2.813 1.406-1.2 0-2.141-.475-2.82-1.424-.68-.95-1.02-2.285-1.02-4.008v-2.32c0-1.7.334-3.024 1.002-3.973C1.774.496 2.715.02 3.92.02c1.214 0 2.154.477 2.822 1.432.674.95 1.01 2.285 1.01 4.008v2.32zm-.475-2.356c0-1.553-.293-2.763-.879-3.63-.58-.867-1.406-1.3-2.478-1.3-1.078 0-1.907.436-2.487 1.309C.86 2.67.573 3.892.573 5.468v2.294c0 1.547.296 2.757.888 3.63.592.873 1.418 1.31 2.478 1.31 1.067 0 1.89-.437 2.47-1.31.58-.873.87-2.098.87-3.674V5.424z" fill="#000"/></svg>